<?xml version="1.0" standalone="no"?>
<!DOCTYPE svg PUBLIC "-//W3C//DTD SVG 1.1//EN" "http://www.w3.org/Graphics/SVG/1.1/DTD/svg11.dtd" >
<svg xmlns="http://www.w3.org/2000/svg">
<metadata></metadata>
<defs>
<font id="fs_joeyheavy_italic" horiz-adv-x="1187" >
<font-face units-per-em="2048" ascent="1536" descent="-512" />
<missing-glyph horiz-adv-x="440" />
<glyph unicode="&#xfb01;" horiz-adv-x="1306" d="M-47 -319q0 15 16 71q88 305 119 461l105 535h-125q-21 0 -29 5.5t-8 22.5q0 10 8 51l16 84q6 30 15.5 41t33.5 17l138 30l16 88q33 178 156.5 248t361.5 70h17q62 0 151.5 -12t153.5 -31q37 -10 37 -31q0 -17 -15 -80l-22 -98q-6 -27 -16 -36t-27 -9q-7 0 -99 15.5 t-165 15.5q-116 0 -163.5 -26t-56.5 -85l-4 -24h615q31 0 44 -9t13 -28q0 -18 -18 -111l-156 -797q-5 -31 -22.5 -45t-55.5 -14h-188q-60 0 -60 35q0 9 15 82l120 631h-358l-96 -494q-79 -404 -154 -563q-16 -33 -35 -43t-55 -10h-164q-31 0 -45 10t-14 33z" />
<glyph unicode="&#xfb02;" horiz-adv-x="1439" d="M-47 -319q0 15 16 71q88 305 119 461l105 535h-125q-21 0 -29 5.5t-8 22.5q0 10 8 51l16 84q6 30 15.5 41t33.5 17l138 30l16 88q33 174 147.5 246t331.5 72h17q72 0 160 -14.5t143 -34.5l172 24q54 6 69 6q32 0 46 -13.5t8 -45.5l-185 -952q-16 -74 -16 -92 q0 -29 37 -29h57q29 0 39 -8t10 -29q0 -17 -12 -78l-14 -69q-7 -40 -24.5 -55t-55.5 -15h-139q-90 0 -135 13.5t-72 45.5q-33 39 -33 101q0 49 31 211l143 737q-112 35 -227 35h-6q-90 0 -129 -25.5t-48 -81.5l-6 -32h176q45 0 45 -29q0 -9 -12 -74l-20 -104 q-5 -26 -19 -37.5t-43 -11.5h-178l-96 -494q-79 -404 -154 -563q-16 -33 -35 -43t-55 -10h-164q-31 0 -45 10t-14 33z" />
<glyph horiz-adv-x="2048" />
<glyph horiz-adv-x="2048" />
<glyph unicode="&#xd;" horiz-adv-x="2048" />
<glyph unicode=" "  horiz-adv-x="440" />
<glyph unicode="&#x09;" horiz-adv-x="440" />
<glyph unicode="&#xa0;" horiz-adv-x="440" />
<glyph unicode="!" horiz-adv-x="522" d="M-31 111q0 96 55 153.5t156 57.5h6q68 0 107 -33t39 -96q0 -96 -55 -153.5t-156 -57.5h-6q-68 0 -107 33t-39 96zM82 457q0 23 6 61l111 756q7 54 26.5 70t73.5 16h184q40 0 57 -10t17 -35q0 -17 -22 -107l-175 -721q-11 -49 -30.5 -62t-67.5 -13h-125q-55 0 -55 45z" />
<glyph unicode="&#x22;" horiz-adv-x="1101" d="M182 911l74 535q3 43 49 43h256q43 0 33 -43l-135 -535q-6 -21 -17 -29t-32 -8h-199q-34 0 -29 37zM709 911l73 535q3 43 49 43h256q43 0 33 -43l-135 -535q-6 -21 -17 -29t-32 -8h-199q-33 0 -28 37z" />
<glyph unicode="#" horiz-adv-x="1439" d="M15 333q-6 16 10 50l51 117q9 24 24.5 34.5t46.5 10.5h150l84 200h-160q-30 0 -36 16t10 50l51 117q9 24 24.5 34.5t46.5 10.5h162l127 299q13 32 27.5 42.5t44.5 10.5h162q31 0 41 -11.5t-4 -51.5l-123 -289h209l127 299q13 32 27.5 42.5t43.5 10.5h162q31 0 41 -11.5 t-4 -51.5l-123 -289h152q30 0 36 -16t-10 -50l-51 -116q-9 -24 -25 -35t-47 -11h-153l-84 -200h164q30 0 36 -16t-10 -50l-51 -117q-9 -24 -25 -34.5t-47 -10.5h-164l-112 -264q-13 -32 -27.5 -42.5t-44.5 -10.5h-162q-31 0 -41 11.5t4 51.5l109 254h-209l-113 -264 q-13 -32 -27.5 -42.5t-43.5 -10.5h-162q-31 0 -41 11.5t4 51.5l109 254h-150q-30 0 -36 16zM571 545h209l84 200h-209z" />
<glyph unicode="$" d="M34 67.5q-8 15.5 1 47.5l37 166q7 35 22.5 44.5t44.5 -1.5q140 -55 281 -64l55 285l-61 16q-138 34 -195 101t-57 182q0 77 22 176q33 147 131 225q64 51 156 73.5t234 24.5l30 158q3 17 10.5 23t24.5 6h59q15 0 20.5 -6t2.5 -23l-33 -162q140 -12 252 -51q35 -11 35 -41 q0 -20 -31 -100l-31 -84q-9 -26 -16.5 -34.5t-21.5 -8.5q-13 0 -37 6q-118 26 -203 33l-51 -254l71 -19q132 -34 188.5 -90.5t57.5 -158.5q0 -104 -28 -240q-32 -164 -157.5 -239.5t-359.5 -75.5h-6l-26 -138q-3 -17 -10 -22.5t-25 -5.5h-60q-15 0 -20 5.5t-2 22.5l27 142 q-190 15 -287 53q-36 13 -44 28.5zM500 926q0 -35 22 -56t82 -39l43 226q-147 -14 -147 -131zM537 262q81 8 115 45t34 123q0 28 -23 48.5t-77 37.5z" />
<glyph unicode="%" horiz-adv-x="1894" d="M135 825q0 44 10 99l15 73q36 181 127.5 263.5t267.5 82.5q127 0 200.5 -61t73.5 -174q0 -43 -10 -98l-14 -74q-36 -181 -128.5 -263.5t-268.5 -82.5q-127 0 -200 60.5t-73 174.5zM310 -3q-9 15 7 38l975 1272q15 21 31.5 28.5t48.5 7.5h176q27 0 36 -15t-7 -38 l-975 -1272q-15 -21 -31.5 -28.5t-48.5 -7.5h-176q-27 0 -36 15zM395 846q0 -49 54 -49h4q35 0 55.5 26t30.5 86l22 115q8 47 8 63q0 50 -53 50h-4q-35 0 -55 -26.5t-31 -86.5l-23 -115q-8 -47 -8 -63zM1065 217q0 43 10 98l15 74q36 181 127.5 263.5t267.5 82.5 q127 0 200.5 -61t73.5 -174q0 -44 -10 -99l-14 -73q-36 -181 -129 -263.5t-269 -82.5q-127 0 -199.5 60.5t-72.5 174.5zM1325 238q0 -50 53 -50h4q35 0 55 26.5t31 86.5l23 115q8 47 8 63q0 49 -53 49h-4q-35 0 -55.5 -26t-30.5 -86l-23 -115q-8 -47 -8 -63z" />
<glyph unicode="&#x26;" horiz-adv-x="1284" d="M-8 293q0 290 327 407q-114 129 -114 269q0 121 65 207t170.5 126.5t239.5 40.5h12q175 0 278 -74t103 -206q0 -259 -342 -426l154 -209q30 56 49 154l6 30q3 18 12 24.5t31 6.5h160q31 0 31 -22q0 -7 -9 -56q-41 -213 -131 -336l86 -118q13 -19 13 -31q0 -18 -25 -37 l-164 -109q-21 -14 -33 -14q-14 0 -28 17l-88 120q-135 -75 -355 -75h-22q-205 0 -315.5 81.5t-110.5 229.5zM330 346q0 -57 39 -93t118 -36h7q86 0 157 33l-217 291q-104 -71 -104 -195zM520 971q0 -57 78 -158l12 -16q62 34 104 89t42 122q0 40 -26.5 61t-70.5 21h-6 q-58 0 -95.5 -31.5t-37.5 -87.5z" />
<glyph unicode="'" horiz-adv-x="575" d="M182 911l74 535q3 43 49 43h256q43 0 33 -43l-135 -535q-6 -21 -17 -29t-32 -8h-199q-34 0 -29 37z" />
<glyph unicode="(" horiz-adv-x="702" d="M61 373q0 267 128 518.5t358 454.5q46 40 71 40q21 0 48 -16l88 -63q34 -24 34 -41q0 -23 -26 -52q-189 -200 -285 -405.5t-96 -448.5q0 -210 108 -438q13 -26 13 -41q0 -24 -37 -43l-123 -65q-26 -13 -41 -13q-26 0 -49 33q-88 124 -139.5 276t-51.5 304z" />
<glyph unicode=")" horiz-adv-x="702" d="M-115 -119q0 21 27 51q189 200 285 405.5t96 448.5q0 209 -109 439q-12 24 -12 41q0 24 37 43l123 65q24 12 41 12q27 0 49 -32q88 -124 139 -276t51 -304q0 -267 -127.5 -518.5t-357.5 -454.5q-47 -41 -72 -41q-19 0 -47 17l-88 63q-35 24 -35 41z" />
<glyph unicode="*" horiz-adv-x="856" d="M164 1200q0 12 20 51l58 111q12 27 37 27q10 0 28 -11l144 -88l10 217q3 37 43 37h164q28 0 28 -22q0 -7 -14 -54l-59 -178l170 86q30 15 36 15q22 0 27 -35l16 -94q7 -44 7 -50q0 -15 -9.5 -22t-31.5 -12l-215 -54l131 -118q22 -20 22 -39q0 -22 -31 -41l-112 -78 q-15 -10 -31 -10q-18 0 -29 26l-77 156l-142 -168q-16 -23 -35 -23q-11 0 -26 11l-103 82q-22 18 -22 36t25 37l190 135l-193 48q-17 4 -21.5 9t-4.5 13z" />
<glyph unicode="+" d="M70 461l24 127q9 50 25 66t57 16h258l51 268q8 43 25 56.5t68 13.5h151q50 0 62.5 -15.5t3.5 -66.5l-50 -256h256q40 0 51 -17.5t3 -56.5l-25 -127q-9 -50 -25 -66t-57 -16h-258l-51 -268q-8 -43 -24.5 -56.5t-67.5 -13.5h-152q-49 0 -61.5 15.5t-3.5 66.5l49 256h-256 q-39 0 -50 17.5t-3 56.5z" />
<glyph unicode="," horiz-adv-x="503" d="M-127 -291q-34 22 2 58q46 49 92 102q49 54 56 74q4 9 4 18q0 11 -13 27l-20 18q-27 24 -27 64q0 23 17 110q17 83 62 120.5t130 37.5h21q75 0 108 -27t35 -84q0 -31 -12 -90q-17 -94 -96.5 -226.5t-208.5 -250.5q-34 -31 -74 -4z" />
<glyph unicode="-" horiz-adv-x="745" d="M33 451v153q0 37 18 51.5t64 14.5h450q46 0 64 -14.5t18 -51.5v-153q0 -38 -16 -52t-66 -14h-450q-50 0 -66 14t-16 52z" />
<glyph unicode="." horiz-adv-x="493" d="M-31 84q0 39 13 102q21 85 67 118.5t125 33.5h19q139 0 139 -96q0 -50 -15 -109q-21 -85 -66 -118t-124 -33h-18q-140 0 -140 102z" />
<glyph unicode="/" horiz-adv-x="831" d="M-111 -14q0 19 35 86l674 1261q22 40 47.5 56t67.5 16h182q26 0 36.5 -7.5t10.5 -25.5q0 -19 -35 -86l-674 -1261q-22 -40 -47 -56t-67 -16h-180q-24 0 -37 9.5t-13 23.5z" />
<glyph unicode="0" d="M37 367q0 192 76 477q72 271 213 385t387 114h4q434 0 434 -385q0 -192 -76 -477q-72 -271 -213 -385t-387 -114h-4q-434 0 -434 385zM375 389q0 -71 31.5 -101t101.5 -30h8q97 0 151 69.5t93 233.5q53 217 53 375q0 71 -31.5 101t-101.5 30h-8q-97 0 -151 -69.5 t-93 -233.5q-53 -217 -53 -375z" />
<glyph unicode="1" d="M84 37q0 13 8 53l21 109q7 39 22.5 52t54.5 13h222l141 721h-10l-189 -80q-30 -12 -45 -12q-27 0 -39 29l-47 129q-12 32 -12 43q0 28 41 45l338 147q56 24 87.5 31.5t78.5 7.5h135q26 0 37.5 -8.5t11.5 -28.5q0 -25 -14 -102l-178 -922h213q31 0 42 -8t11 -29 q0 -13 -8 -53l-21 -108q-7 -39 -23 -52.5t-55 -13.5h-770q-31 0 -42 8t-11 29z" />
<glyph unicode="2" d="M16 72l25 116q22 107 48.5 179.5t73 138t116.5 112t174 84.5l129 48q126 46 167.5 88t41.5 114q0 58 -37 85.5t-115 27.5h-4q-107 0 -266 -49q-37 -10 -51.5 -2t-22.5 39l-37 141q-8 30 2 48t43 30q196 71 393 71h13q421 0 421 -352q0 -177 -94 -283.5t-288 -175.5 l-99 -34q-102 -37 -158.5 -71.5t-80.5 -70t-37 -92.5h538q35 0 46.5 -15.5t5.5 -51.5l-27 -136q-8 -37 -22.5 -49t-53.5 -12h-786q-40 0 -53.5 15.5t-4.5 56.5z" />
<glyph unicode="3" d="M2.5 89.5q-6.5 22.5 5.5 49.5l39 123q11 35 27 43.5t63 -4.5q74 -24 158 -39.5t133 -15.5h6q119 0 180.5 49.5t61.5 159.5q0 54 -43.5 78t-140.5 24h-103q-40 0 -50 11.5t-3 52.5l24 127q8 39 23.5 54t56.5 15h52q138 0 196 41q55 37 55 111q0 60 -32 84t-101 24h-2 q-107 0 -270 -49q-32 -10 -50.5 -4t-25.5 31l-37 135q-9 39 -0.5 54t41.5 28q76 30 191.5 50.5t206.5 20.5h26q395 0 395 -307q0 -113 -59 -201.5t-170 -127.5l-2 -7q162 -51 162 -227q0 -232 -150.5 -361.5t-435.5 -129.5h-8q-89 0 -198.5 20.5t-182.5 50.5 q-32 14 -38.5 36.5z" />
<glyph unicode="4" d="M-10 350l10 51q8 38 21 63t55 79l559 717q31 40 54.5 52.5t72.5 12.5h256q44 0 59 -14t8 -54l-139 -708h115q33 0 45 -11.5t6 -41.5l-31 -162q-6 -30 -19.5 -40.5t-47.5 -10.5h-119l-41 -215q-7 -42 -23.5 -55t-58.5 -13h-184q-42 0 -55.5 14.5t-6.5 53.5l41 215h-514 q-75 0 -63 67zM358 549h263l90 455z" />
<glyph unicode="5" d="M14 109q0 12 11 49l34 108q11 37 28 48t58 -1q181 -67 301 -67h11q116 0 185 62.5t69 174.5q0 58 -37.5 90.5t-110.5 32.5h-4q-77 0 -207 -49q-30 -10 -48.5 -9t-43.5 13l-72 35q-30 15 -30 45q0 14 12 68l135 555q7 33 26 47t56 14h660q40 0 51 -10.5t4 -48.5l-31 -156 q-6 -31 -21.5 -43t-54.5 -12h-420q-13 0 -19.5 -5t-10.5 -22l-47 -197q111 35 215 35h10q155 0 241.5 -80t86.5 -241q0 -119 -38 -220.5t-111 -178.5t-188 -120.5t-261 -43.5h-11q-92 0 -198.5 20.5t-180.5 50.5q-49 19 -49 56z" />
<glyph unicode="6" d="M78 428q0 181 61 382.5t168 334.5q86 106 199 152t264 46q78 0 162.5 -15t140.5 -38q32 -13 38.5 -33t-5.5 -53l-43 -121q-11 -33 -30.5 -40t-55.5 4q-122 32 -197 32h-12q-93 0 -149 -33.5t-97 -113.5q-35 -71 -51 -119q116 49 244 49h6q162 0 253 -77t91 -242 q0 -268 -143 -414.5t-379 -146.5h-25q-440 0 -440 446zM403 408q0 -160 138 -160h18q90 0 134 70.5t44 170.5q0 58 -33.5 83.5t-99.5 25.5h-6q-86 0 -182 -27q-13 -93 -13 -163z" />
<glyph unicode="7" d="M57 19.5q-8 19.5 15 48.5l708 985h-504q-35 0 -44 15.5t-3 53.5l25 131q8 44 23.5 58t60.5 14h797q41 0 54 -11.5t7 -45.5l-12 -78q-6 -40 -29 -83t-78 -122l-643 -930q-23 -33 -47 -44t-68 -11h-213q-41 0 -49 19.5z" />
<glyph unicode="8" d="M20 315q0 113 71 211.5t185 157.5q-100 87 -100 246q0 193 143.5 303t372.5 110h13q204 0 316 -87t112 -226q0 -109 -60.5 -202t-152.5 -152q72 -48 107.5 -110t35.5 -148q0 -183 -125 -299q-147 -137 -430 -137h-21q-236 0 -356 94q-111 86 -111 239zM369 381 q0 -61 39.5 -101t121.5 -40h13q81 0 128.5 35.5t47.5 99.5q0 51 -34 83.5t-128 76.5l-82 36q-46 -32 -76 -83.5t-30 -106.5zM512 961q0 -46 28.5 -77t94.5 -63l72 -35q40 38 68 88.5t28 100.5q0 59 -34.5 90t-94.5 31h-4q-69 0 -113.5 -35.5t-44.5 -99.5z" />
<glyph unicode="9" d="M76.5 68q-6.5 20 5.5 53l43 121q11 34 30.5 41t55.5 -4q126 -33 197 -33h12q93 0 149 33.5t97 113.5q28 54 49 119q-113 -49 -242 -49h-6q-162 0 -253 77t-91 242q0 268 143 414.5t379 146.5h25q440 0 440 -446q0 -181 -61 -382.5t-168 -334.5q-86 -106 -199 -152 t-264 -46q-78 0 -162.5 15t-140.5 38q-32 13 -38.5 33zM451 836q0 -58 33.5 -83.5t99.5 -25.5h6q86 0 182 27q12 86 12 164q0 159 -137 159h-18q-90 0 -134 -70.5t-44 -170.5z" />
<glyph unicode=":" horiz-adv-x="493" d="M-31 84q0 39 13 102q21 85 67 118.5t125 33.5h19q139 0 139 -96q0 -50 -15 -109q-21 -85 -66 -118t-124 -33h-18q-140 0 -140 102zM121 864q0 45 12 103q21 85 67 118t126 33h18q139 0 139 -96q0 -54 -14 -109q-21 -85 -66 -118t-124 -33h-19q-139 0 -139 102z" />
<glyph unicode=";" horiz-adv-x="503" d="M-123 -291q-34 22 2 58q46 49 92 102q49 54 56 74q4 9 4 18q0 11 -13 27l-20 18q-27 24 -27 64q0 23 17 110q17 83 62 120.5t130 37.5h21q75 0 108 -27t35 -84q0 -31 -12 -90q-17 -94 -96.5 -226.5t-208.5 -250.5q-34 -31 -74 -4zM115 864q0 45 12 103q21 85 66.5 118 t125.5 33h19q139 0 139 -96q0 -54 -14 -109q-21 -85 -66.5 -118t-124.5 -33h-18q-139 0 -139 102z" />
<glyph unicode="&#x3c;" d="M92 494l14 77q7 37 19 51.5t47 32.5l797 394q24 12 41 12q29 0 43 -39l41 -111q14 -40 14 -57q0 -18 -12 -29t-41 -26l-549 -267l442 -262q41 -24 41 -47q0 -18 -31 -63l-90 -119q-29 -39 -55 -39q-21 0 -39 12l-649 396q-26 17 -32.5 33t-0.5 51z" />
<glyph unicode="=" d="M27 209l24 127q9 50 25 66t57 16h825q40 0 51 -17.5t3 -56.5l-25 -127q-9 -50 -25 -66t-57 -16h-825q-39 0 -50 17.5t-3 56.5zM125 713l25 127q9 50 24.5 66t56.5 16h826q39 0 50 -17.5t3 -56.5l-25 -127q-9 -50 -24.5 -66t-56.5 -16h-826q-39 0 -50 17.5t-3 56.5z" />
<glyph unicode="&#x3e;" d="M37 209q0 18 12 29t41 26l549 266l-442 263q-41 24 -41 47q0 20 30 63l90 119q29 39 56 39q21 0 39 -12l649 -396q26 -17 32.5 -33t0.5 -51l-15 -77q-7 -37 -18.5 -51.5t-46.5 -32.5l-797 -394q-24 -12 -41 -12q-29 0 -43 39l-41 111q-14 40 -14 57z" />
<glyph unicode="?" horiz-adv-x="948" d="M74 111q0 96 55 153.5t156 57.5h6q68 0 106.5 -33t38.5 -96q0 -96 -55 -153.5t-156 -57.5h-6q-68 0 -106.5 33t-38.5 96zM144 1248q8 17 44 30q82 30 189.5 47.5t204.5 17.5h8q364 0 364 -288q0 -105 -28.5 -175t-82.5 -117.5t-155 -100.5l-70 -37q-107 -58 -142.5 -90.5 t-45.5 -85.5q-3 -20 -14.5 -27.5t-38.5 -7.5h-168q-33 0 -33 24q0 117 48.5 198t172.5 146l70 37q85 45 118 80t33 96q0 82 -120 82h-6q-100 0 -250 -47q-56 -18 -64 23l-33 151q-9 27 -1 44z" />
<glyph unicode="@" horiz-adv-x="1679" d="M78 526q0 173 56.5 331t172.5 280q121 125 291 191.5t367 66.5q135 0 248.5 -36.5t198.5 -105.5t133 -176.5t48 -242.5q0 -108 -29 -206.5t-83 -177t-139 -125t-189 -46.5q-91 0 -154 26.5t-88 73.5h-6q-65 -72 -186 -72h-4q-108 0 -160.5 56t-52.5 153q0 100 41 248 q37 136 100.5 196t175.5 60q122 0 178 -80l17 31q8 15 17 20.5t30 5.5h113q24 0 32 -7.5t4 -28.5l-69 -345q-15 -77 -15 -110q0 -64 62 -64q45 0 79.5 34t52.5 89t27 115.5t9 124.5q0 183 -113 282t-311 99q-257 0 -412 -166q-83 -87 -125.5 -211t-42.5 -264 q0 -193 120.5 -297.5t356.5 -104.5q216 0 398 43q26 6 36 1t13 -25l20 -101q4 -26 -3.5 -37t-35.5 -20q-91 -28 -218 -46.5t-244 -18.5q-348 0 -532.5 153.5t-184.5 433.5zM745 539q0 -60 52 -60q36 0 57 25t33 84l24 121q15 70 15 79q0 25 -15 38.5t-41 13.5q-33 0 -55 -21 t-35 -69q-35 -126 -35 -211z" />
<glyph unicode="A" horiz-adv-x="1239" d="M-102 39q0 25 26 82q279 578 570 1112q28 51 64 71.5t97 20.5h176q62 0 90.5 -20.5t34.5 -71.5q56 -406 127 -1075q9 -106 9 -109q0 -25 -18.5 -37t-63.5 -12h-181q-48 0 -68.5 15t-23.5 53l-14 170h-383l-80 -170q-20 -41 -41.5 -54.5t-79.5 -13.5h-182q-59 0 -59 39z M451 508h264q-6 132 -29 459h-22q-105 -225 -213 -459z" />
<glyph unicode="B" horiz-adv-x="1165" d="M12 61q0 33 15 107l209 1092q7 37 24.5 50.5t61.5 18.5q129 14 311 14h31q235 0 338.5 -67t103.5 -203q0 -123 -50.5 -220.5t-158.5 -147.5v-7q168 -40 168 -219q0 -230 -123 -348q-137 -131 -477 -131h-29q-230 0 -368 12q-56 6 -56 49zM393 299q0 -15 27 -18 q45 -5 76 -5h10q79 0 123.5 20.5t64.5 65.5q21 49 21 113q0 50 -31.5 70t-105.5 20h-136l-41 -217q-8 -39 -8 -49zM489 809h78q138 0 174 102q13 41 13 78q0 43 -27 60.5t-82 17.5h-14q-40 0 -76 -4q-20 -3 -23 -23z" />
<glyph unicode="C" horiz-adv-x="1136" d="M57 342q0 107 76 479q33 158 76.5 251.5t116.5 154.5q137 116 413 116h15q203 0 362 -81q27 -14 27 -31q0 -24 -31 -92l-53 -117q-13 -31 -35 -31q-21 0 -41 10q-122 56 -233 56h-9q-124 0 -188 -70q-30 -33 -46.5 -82t-39.5 -162q-51 -254 -51 -350q0 -66 44.5 -95.5 t155.5 -29.5h13q129 0 258 47q24 9 37 9q25 0 30 -39l13 -90q10 -72 10 -93q0 -35 -74 -61q-161 -59 -373 -59h-20q-294 0 -393 137q-60 82 -60 223z" />
<glyph unicode="D" horiz-adv-x="1280" d="M12 66q0 10 25 135l199 1034q8 46 27.5 62.5t58.5 19.5q135 12 348 12h22q345 0 455 -141q57 -74 71 -180q5 -37 4 -82q0 -84 -16 -197q-35 -250 -94 -381.5t-154 -208.5q-92 -75 -226.5 -107t-334.5 -32h-43q-209 0 -280 8q-62 6 -62 58zM401 309q0 -21 27 -24 q25 -2 78 -2h18q125 0 193 59q48 40 77 101t56 184q35 157 35 245q0 78 -35 121q-45 56 -170 56h-18q-30 0 -87 -5q-22 -2 -31 -8.5t-12 -25.5l-112 -590q-19 -108 -19 -111z" />
<glyph unicode="E" horiz-adv-x="1067" d="M45 147q0 137 70 539q42 233 82 379q29 108 75.5 164.5t112.5 76t180 19.5h490q27 0 37 -6t10 -21q0 -4 -15 -90l-18 -100q-8 -39 -20.5 -50t-59.5 -11h-424q-27 0 -39 -9t-18 -32q-20 -75 -45 -207h420q31 0 43 -6t12 -21q0 -29 -16 -100l-19 -84q-6 -26 -20.5 -36.5 t-46.5 -10.5h-426q-20 -105 -25 -146q-8 -52 -8 -86q0 -17 8 -23.5t29 -6.5h426q29 0 41 -7t12 -28q0 -18 -12 -94l-15 -87q-8 -37 -24 -50t-58 -13h-534q-115 0 -160 31.5t-45 115.5z" />
<glyph unicode="F" horiz-adv-x="1050" d="M8 33q0 5 2 15t6.5 31.5t8.5 43.5l186 962q26 128 86 183q62 57 197 57h567q25 0 35 -7t10 -26q0 -17 -16 -102l-17 -86q-6 -33 -22.5 -45t-57.5 -12h-411q-22 0 -32 -8.5t-15 -30.5l-41 -215h393q55 0 55 -29q0 -23 -14 -102l-13 -72q-6 -32 -21.5 -43.5t-53.5 -11.5 h-398l-90 -469q-9 -43 -24 -54.5t-62 -11.5h-190q-39 0 -53.5 6t-14.5 27z" />
<glyph unicode="G" horiz-adv-x="1273" d="M57 332q0 99 68 448q38 193 82.5 289.5t120.5 159.5q139 114 446 114h8q107 0 218 -23t192 -65q25 -13 25 -34q0 -16 -19 -62l-59 -137q-14 -35 -41 -35q-14 0 -74 21q-129 49 -250 49h-8q-143 0 -207 -64q-32 -32 -50.5 -85t-41.5 -169q-53 -278 -53 -340q0 -69 35 -96 q43 -37 131 -37h12q82 0 127 13q24 6 34.5 15.5t14.5 33.5l39 188h-129q-37 0 -37 25q0 17 8 61l21 107q7 38 21.5 50.5t49.5 12.5h385q52 0 52 -35q0 -16 -21 -119l-96 -477q-6 -32 -22 -49.5t-54 -34.5q-76 -33 -192 -54t-236 -21h-22q-311 0 -410 127q-35 45 -51.5 95.5 t-16.5 127.5z" />
<glyph unicode="H" horiz-adv-x="1333" d="M12 35q0 14 15 90l221 1147q6 34 20 43.5t60 9.5h198q37 0 50.5 -7.5t13.5 -25.5q0 -9 -2 -19t-6 -29t-7 -36l-77 -403h391l88 457q9 43 23 53t61 10h196q36 0 50 -7.5t14 -23.5q0 -9 -2 -21.5t-6 -32t-6 -32.5l-222 -1145q-7 -42 -21 -52.5t-60 -10.5h-203q-58 0 -58 35 q0 14 15 90l76 401h-392l-88 -463q-7 -36 -25.5 -49.5t-58.5 -13.5h-200q-58 0 -58 35z" />
<glyph unicode="I" horiz-adv-x="616" d="M18 33q0 13 13 84l225 1155q6 34 20 43.5t60 9.5h199q37 0 50 -7.5t13 -25.5q0 -9 -2 -21t-6 -30.5t-6 -32.5l-224 -1155q-6 -34 -20 -43.5t-59 -9.5h-199q-37 0 -50.5 7.5t-13.5 25.5z" />
<glyph unicode="J" horiz-adv-x="790" d="M-61 35q0 24 14 90l16 84q9 45 26 59.5t58 14.5h64q83 0 120 35t56 128l158 816q9 42 23.5 52.5t62.5 10.5h206q32 0 42 -6.5t10 -22.5q0 -12 -15 -86l-143 -737q-26 -136 -54 -216.5t-55 -118t-73 -72.5q-52 -40 -126.5 -53t-199.5 -13h-133q-31 0 -44 8t-13 27z" />
<glyph unicode="K" horiz-adv-x="1208" d="M12 33q0 7 15 86l221 1143q9 41 24 52t58 11h198q38 0 51 -5t13 -22q0 -13 -23 -131l-67 -352h14q12 0 21 7.5t32 33.5l342 418q25 29 48.5 40t64.5 11h223q63 0 63 -28q0 -19 -28 -50l-442 -518q-6 -6 -14 -15.5t-12.5 -14t-10 -11t-8.5 -10.5t-6 -9t-4 -9.5t-1 -8.5 q0 -17 29 -69l254 -484q23 -42 23 -61t-11.5 -28t-40.5 -9h-229q-40 0 -59.5 11.5t-34.5 43.5l-203 416q-2 4 -5 11q-25 51 -36 57q-3 2 -8 2h-14l-95 -484q-6 -35 -21 -46t-61 -11h-211q-28 0 -38.5 6t-10.5 27z" />
<glyph unicode="L" horiz-adv-x="968" d="M37 135q0 58 24 178l185 949q9 43 23 53t61 10h211q49 0 49 -27q0 -11 -23 -129l-164 -843q-1 -7 -1 -13q0 -34 42 -34h334q29 0 41 -7t12 -26q0 -14 -14 -88l-18 -92q-8 -41 -22.5 -53.5t-61.5 -12.5h-490q-100 0 -144 34t-44 101z" />
<glyph unicode="M" horiz-adv-x="1644" d="M-6 41q0 16 14 84q126 582 256 1094q19 65 43 85.5t80 20.5h178q71 0 99 -20.5t34 -77.5q42 -440 72 -723h14q123 236 359 723q28 57 63.5 77.5t106.5 20.5h203q46 0 66 -12.5t20 -46.5q0 -19 -19 -152q-5 -35 -41.5 -280t-65.5 -424.5t-59 -339.5q-8 -41 -25.5 -55.5 t-66.5 -14.5h-172q-38 0 -52 8.5t-14 28.5q0 14 3 30.5t9.5 47t10.5 51.5q55 277 121 661h-8q-161 -322 -316 -614q-24 -44 -50.5 -58t-76.5 -14h-129q-49 0 -68.5 15t-25.5 57q-45 291 -72 614h-8q-71 -329 -155 -757q-8 -43 -25 -56.5t-68 -13.5h-163q-40 0 -56 9t-16 32z " />
<glyph unicode="N" horiz-adv-x="1316" d="M12 37q0 2 13 82l221 1138q7 40 25.5 54t56.5 14h82q47 0 71 -12.5t39 -44.5l330 -678h4l131 665q7 41 25.5 55.5t58.5 14.5h174q33 0 47.5 -7.5t14.5 -27.5q0 -5 -17 -92l-219 -1130q-7 -39 -26.5 -53.5t-55.5 -14.5h-84q-44 0 -68 12t-42 45l-334 660h-4l-125 -647 q-7 -42 -24.5 -56t-59.5 -14h-176q-33 0 -45.5 8t-12.5 29z" />
<glyph unicode="O" horiz-adv-x="1296" d="M57 352q0 117 56 402q39 203 96.5 315.5t165.5 185.5q130 88 393 88h16q241 0 351 -96q104 -91 104 -256q0 -131 -53 -407q-41 -214 -92 -324.5t-148 -177.5q-144 -100 -420 -100h-22q-114 0 -205.5 26t-142.5 70q-53 45 -76 111t-23 163zM410 418q0 -68 26 -101 q40 -49 127 -49h25q85 0 143 49q40 34 65.5 106.5t51.5 201.5q41 212 41 284q0 69 -25 101q-38 47 -127 47h-24q-86 0 -144 -49q-39 -33 -65.5 -108.5t-50.5 -199.5q-43 -228 -43 -282z" />
<glyph unicode="P" horiz-adv-x="1177" d="M12 33q0 5 2.5 17.5t7 34.5t7.5 38l217 1128q8 43 27 59.5t69 20.5q141 12 340 12h25q117 0 198 -15.5t142.5 -53.5t90.5 -106t29 -169q0 -57 -11.5 -121.5t-35 -134t-67.5 -130.5t-101 -95q-78 -47 -179 -65.5t-247 -18.5h-98l-72 -368q-9 -43 -24 -54.5t-62 -11.5h-190 q-39 0 -53.5 6t-14.5 27zM481 715h107q97 0 145.5 32.5t69.5 114.5q16 66 16 107q0 37 -18 61q-29 37 -121 37h-16q-64 0 -101 -6q-17 -3 -20 -25z" />
<glyph unicode="Q" horiz-adv-x="1296" d="M57 352q0 117 56 402q39 203 96.5 315.5t165.5 185.5q130 88 393 88h16q241 0 351 -96q104 -91 104 -256q0 -131 -53 -407q-41 -214 -92 -324.5t-148 -177.5q-101 -69 -256 -90q102 -118 209 -199q27 -21 27 -39q0 -23 -39 -51l-129 -100q-30 -21 -49 -21q-26 0 -45 19 q-77 66 -146.5 174.5t-107.5 212.5q-83 7 -150.5 31.5t-103.5 58.5q-52 47 -75.5 112.5t-23.5 161.5zM410 418q0 -68 26 -101q40 -49 127 -49h25q85 0 143 49q40 34 65.5 106.5t51.5 201.5q41 212 41 284q0 69 -25 101q-38 47 -127 47h-24q-86 0 -144 -49 q-39 -33 -65.5 -108.5t-50.5 -199.5q-43 -228 -43 -282z" />
<glyph unicode="R" horiz-adv-x="1210" d="M16 63l230 1184q7 42 26.5 59.5t59.5 22.5q133 14 346 14h22q87 0 155 -8t130.5 -29t103.5 -55.5t65 -89.5t24 -129q0 -90 -18.5 -170t-57.5 -150.5t-105 -124t-155 -81.5l180 -424q12 -30 12 -45q0 -37 -55 -37h-211q-51 0 -70 11t-30 46l-138 394q-3 13 -9.5 17.5 t-24.5 4.5h-60l-78 -410q-8 -38 -23 -50.5t-61 -12.5h-200q-44 0 -54 14q-6 8 -6 25q0 10 2 24zM489 745h109q115 0 160 39q32 27 49.5 82t17.5 107q0 54 -29.5 73t-105.5 19h-35q-53 0 -71 -2q-34 -3 -41 -45z" />
<glyph unicode="S" horiz-adv-x="1099" d="M-19 68q-4 7 -4 18q0 12 5 29l36 170q7 35 24 44.5t46 -1.5q174 -64 322 -64h10q85 0 129 19.5t63 62.5q17 42 17 84q0 36 -27.5 59t-101.5 41l-125 29q-139 32 -199.5 100.5t-60.5 184.5q0 117 37.5 225.5t119.5 173.5q126 100 396 100h8q190 0 342 -57q35 -11 35 -41 q0 -18 -31 -98l-35 -92q-12 -33 -29 -40t-47 3q-134 39 -245 39h-11q-105 0 -154.5 -32.5t-49.5 -98.5q0 -40 29 -63.5t116 -45.5l129 -33q135 -34 192.5 -89.5t57.5 -157.5q0 -302 -123 -431q-121 -124 -424 -124h-18q-90 0 -206.5 16.5t-178.5 40.5q-36 13 -44 29z" />
<glyph unicode="T" horiz-adv-x="1083" d="M113 1077q0 7 10 64l22 121q7 38 23.5 50.5t54.5 12.5h875q32 0 44.5 -6.5t12.5 -26.5q0 -11 -14 -82l-19 -102q-7 -38 -22.5 -49.5t-55.5 -11.5h-266l-190 -981q-8 -40 -24.5 -53t-61.5 -13h-197q-37 0 -50 7.5t-13 29.5q0 8 18 100l176 910h-268q-31 0 -43 6.5 t-12 23.5z" />
<glyph unicode="U" horiz-adv-x="1294" d="M57 305q0 72 17 158l155 799q7 42 22 52.5t62 10.5h203q30 0 42.5 -10t12.5 -33q0 -14 -6 -51l-147 -758q-10 -58 -10 -90q0 -51 20 -74q33 -41 133 -41h10q101 0 150 41q48 40 72 164l153 789q9 42 23.5 52.5t60.5 10.5h201q30 0 42.5 -10t12.5 -33q0 -14 -6 -51 l-150 -768q-29 -145 -66.5 -226.5t-115.5 -142.5q-145 -112 -420 -112h-24q-272 0 -375 112q-72 84 -72 211z" />
<glyph unicode="V" horiz-adv-x="1175" d="M137 1272q0 31 15.5 42t60.5 11h186q47 0 60.5 -9t13.5 -48q0 -232 10.5 -487.5t28.5 -411.5h10q225 445 396 899q14 39 30 48t62 9h202q34 0 48 -6t14 -21q0 -9 -4.5 -25t-9 -26.5t-14 -32.5t-11.5 -26q-251 -570 -551 -1116q-20 -37 -49.5 -54.5t-81.5 -17.5h-201 q-47 0 -70.5 18t-31.5 54q-46 234 -78 578.5t-35 621.5z" />
<glyph unicode="W" horiz-adv-x="1689" d="M143 1272q2 29 18 41t56 12h201q39 0 53.5 -10.5t13.5 -42.5q-29 -583 -39 -903h9q123 284 342 823q11 30 30 41.5t58 11.5h149q40 0 57 -12t17 -41q2 -300 10 -823h8q221 628 314 903q10 32 29.5 42.5t58.5 10.5h201q59 0 59 -29q0 -8 -5 -23.5t-15.5 -43t-14.5 -37.5 q-244 -650 -459 -1129q-18 -35 -43.5 -49t-79.5 -14h-170q-56 0 -78.5 16t-25.5 52q-12 188 -16 675h-13q-155 -384 -288 -675q-16 -36 -44.5 -52t-84.5 -16h-189q-54 0 -75 14t-23 49q-26 392 -26 826q0 187 5 383z" />
<glyph unicode="X" horiz-adv-x="1191" d="M-63 76l376 555q25 37 27 51q5 15 -4 45l-182 543q-8 24 8 39.5t53 15.5h205q42 0 61 -10t25 -35l92 -397q6 -25 11 -34t14 -9q14 0 39 43l243 397q15 25 37 35t66 10h204q53 0 53 -25q0 -12 -12 -30l-385 -561q-24 -39 -24 -50q0 -23 8 -47l192 -536q10 -32 -1.5 -54 t-53.5 -22h-196q-41 0 -60.5 14.5t-25.5 46.5l-113 410q-6 25 -11 34t-14 9q-14 0 -39 -43l-249 -410q-21 -36 -45.5 -48.5t-71.5 -12.5h-201q-22 0 -35 9q-12 8 -12 20q0 13 21 47z" />
<glyph unicode="Y" horiz-adv-x="1085" d="M137 1257q-1 7 -1 13q0 55 50 55h203q29 0 38 -0.5t21.5 -5t15.5 -14.5t5 -29q16 -277 68 -582h10q111 195 289 582q14 36 28.5 42.5t63.5 6.5h213q21 0 31 -6t10 -23q0 -6 -1 -12t-3.5 -13t-4.5 -13t-6.5 -15.5t-7 -15t-9 -18.5l-9.5 -19q-95 -198 -227.5 -418 t-256.5 -389l-61 -320q-8 -37 -24 -50t-54 -13h-211q-31 0 -44 8t-13 27q0 20 14 86l53 270q-61 180 -112 419.5t-68 446.5z" />
<glyph unicode="Z" horiz-adv-x="1083" d="M-66 35q0 16 9 57l8 39q6 33 16 53.5t37 53.5l641 809h-420q-33 0 -47 8t-14 28q0 19 12 78l19 99q7 39 24.5 52t59.5 13h786q37 1 49 -11q8 -8 8 -26q0 -9 -2 -22l-14 -70q-6 -32 -19 -56.5t-45 -64.5l-651 -796h471q33 0 47.5 -8t14.5 -29q0 -19 -13 -88l-18 -88 q-7 -39 -24.5 -52.5t-59.5 -13.5h-813q-62 0 -62 35z" />
<glyph unicode="[" horiz-adv-x="729" d="M-25 -143q0 15 11 69l274 1405q6 33 21.5 44t50.5 11h409q30 0 42 -5.5t12 -22.5q0 -12 -9 -58l-26 -135q-5 -32 -19.5 -44.5t-50.5 -12.5h-155l-195 -1006h156q49 0 49 -28q0 -19 -10 -68l-25 -127q-6 -33 -20.5 -44t-51.5 -11h-409q-29 0 -41.5 7.5t-12.5 25.5z" />
<glyph unicode="\" horiz-adv-x="804" d="M133 1356q0 25 14.5 37t49.5 12h198q43 0 57.5 -14.5t20.5 -57.5l191 -1272q8 -58 8 -67q0 -41 -64 -41h-200q-43 0 -57.5 14.5t-20.5 57.5l-187 1249q-10 66 -10 82z" />
<glyph unicode="]" horiz-adv-x="729" d="M-90 -147q0 16 8 57l27 135q5 32 19 44.5t50 12.5h156l195 1006h-156q-49 0 -49 29q0 18 10 67l25 127q6 34 20 44.5t51 10.5h410q29 0 41 -7t12 -25q0 -21 -10 -70l-275 -1405q-6 -33 -21 -44t-50 -11h-410q-30 0 -41.5 6t-11.5 23z" />
<glyph unicode="^" horiz-adv-x="1167" d="M158 834q0 19 26 49l357 389q34 34 53 43.5t63 9.5h95q35 0 51.5 -11t34.5 -42l200 -377q17 -43 17 -49q0 -15 -9 -25.5t-38 -27.5l-119 -72q-30 -18 -47 -14.5t-31 26.5l-174 271l-285 -275q-27 -26 -42.5 -28.5t-39.5 16.5l-86 76q-26 23 -26 41z" />
<glyph unicode="_" horiz-adv-x="1157" d="M-70 -143q0 37 18 51t64 14h862q46 0 64 -14t18 -51v-121q0 -38 -16 -52t-66 -14h-862q-50 0 -66 14t-16 52v121z" />
<glyph unicode="`" horiz-adv-x="847" d="M229 1444q0 17 23 43l115 125q22 22 43 22q18 0 47 -26l307 -297q14 -14 14 -29q0 -18 -33 -51l-69 -70q-28 -28 -47 -28q-18 0 -43 18l-330 252q-27 21 -27 41z" />
<glyph unicode="a" horiz-adv-x="1030" d="M-20 231q0 80 21.5 157.5t68.5 127.5q101 107 352 107h12q89 0 154 -9q12 46 12 70v4q0 78 -141 78h-6q-76 0 -174 -23q-70 -14 -78 -14q-28 0 -31 33l-10 104q-4 54 -4 66q0 15 6 23t24 14q67 21 171.5 37t197.5 16h6q196 0 291 -70q78 -59 78 -188q0 -83 -37 -268 l-88 -439q-6 -31 -23.5 -44t-56.5 -13h-107q-32 0 -44 8t-13 33l-2 37h-4q-73 -96 -283 -96h-6q-139 0 -212.5 65.5t-73.5 183.5zM274 293q0 -78 101 -78h10q70 0 109 31q31 24 47 100l10 57q-51 7 -113 7h-22q-142 0 -142 -117z" />
<glyph unicode="b" horiz-adv-x="1097" d="M18 229q0 79 33 250l166 848q6 32 24 45.5t56 13.5h195q29 0 41 -9t12 -29q0 -10 -2.5 -23.5t-8 -40.5t-10.5 -53l-51 -254h4q88 45 246 45h10q130 0 202.5 -58t72.5 -178q0 -85 -25 -213l-29 -147q-29 -146 -62 -224t-91 -124q-67 -54 -154.5 -75t-220.5 -21h-23 q-141 0 -219 25t-118 77q-48 62 -48 145zM354 322q0 -45 23.5 -64.5t79.5 -19.5h8q80 0 113 36q28 33 47 138l26 133q21 103 21 143q0 76 -103 76h-10q-62 0 -98 -25q-38 -26 -55 -114l-35 -176q-17 -86 -17 -127z" />
<glyph unicode="c" horiz-adv-x="925" d="M-4 264q0 80 20 191l29 155q24 123 65 201t111 127q120 84 318 84h10q77 0 163 -20t148 -50q31 -15 31 -39q0 -15 -23 -69l-43 -94q-10 -23 -18.5 -31t-22.5 -8q-13 0 -36 10q-101 43 -175 43h-10q-80 0 -129 -43q-55 -49 -76 -172l-16 -92q-14 -79 -14 -115 q0 -55 32.5 -79.5t110.5 -24.5h10q80 0 185 30q21 6 32 6q28 0 31 -34l10 -103q4 -46 4 -61q0 -19 -12 -29.5t-43 -19.5q-140 -45 -311 -45h-21q-227 0 -307 100q-53 64 -53 182z" />
<glyph unicode="d" horiz-adv-x="1087" d="M-2 250q0 92 20 203l31 159q23 121 56.5 194t87.5 120q49 44 129.5 70t177.5 26h18q117 0 193 -37h4l67 342q12 59 82 59h187q32 0 44.5 -8.5t12.5 -27.5q0 -14 -12 -82l-168 -873q-28 -141 -56.5 -208t-85.5 -111q-62 -46 -153 -70t-242 -24h-18q-206 0 -297 79 q-78 68 -78 189zM328 309q0 -71 98 -71h12q69 0 105 26q20 15 31.5 36t21.5 71l49 252q6 35 6 59q0 35 -12 51q-24 31 -94 31h-17q-67 0 -102 -35q-22 -22 -34 -53.5t-23 -91.5l-23 -121q-18 -103 -18 -154z" />
<glyph unicode="e" horiz-adv-x="1009" d="M-4 287q0 94 22 215l15 71q31 153 76 238.5t110 130.5q114 80 338 80h6q198 0 285 -84q74 -71 74 -203q0 -57 -31 -233l-10 -56q-6 -33 -21.5 -45t-48.5 -12h-485q-9 -43 -9 -72q0 -42 36.5 -60.5t133.5 -18.5h13q95 0 217 28q30 6 39 6q27 0 30 -34l9 -95q4 -50 4 -61 q0 -20 -14.5 -31t-49.5 -22q-151 -47 -327 -47h-29q-191 0 -287 70.5t-96 234.5zM365 602h223q21 0 26 21l4 18q9 44 9 64q0 88 -105 88h-4q-60 0 -96 -31q-35 -32 -51 -125z" />
<glyph unicode="f" horiz-adv-x="792" d="M-47 -319q0 15 16 71q88 305 119 461l105 535h-125q-21 0 -29 5.5t-8 22.5q0 10 8 51l16 84q6 30 15.5 41t33.5 17l138 30l16 88q36 174 131 244q99 74 281 74h20q104 0 201 -27q37 -10 37 -32q0 -16 -17 -78l-22 -88q-7 -27 -16.5 -37t-24.5 -10q-12 0 -61.5 9t-81.5 9 h-7q-63 0 -90 -27q-24 -24 -35 -88l-6 -32h176q45 0 45 -29q0 -9 -12 -74l-20 -104q-6 -29 -19 -39t-43 -10h-178l-96 -494q-79 -404 -154 -563q-16 -33 -35 -43t-55 -10h-164q-31 0 -45 10t-14 33z" />
<glyph unicode="g" horiz-adv-x="1077" d="M16 438l29 154q25 128 61.5 205t102.5 135q103 90 299 90h20q88 0 156 -26.5t96 -71.5h4l19 41q10 24 21 31.5t36 7.5h129q26 0 35 -12q6 -7 6 -21q0 -9 -2 -21l-176 -907q-25 -127 -64 -210t-100.5 -130.5t-137.5 -66.5t-185 -19h-19q-165 0 -293 41q-33 9 -33 31 q0 9 13 63l28 113q8 26 18 31t50 -2q115 -27 199 -27h12q96 0 144 36.5t65 119.5l6 30h-4q-71 -53 -252 -53h-16q-71 0 -133 22.5t-99 65.5q-53 63 -53 186q0 72 18 164zM332 340q0 -30 12 -51q17 -33 88 -33h14q67 0 101 31q37 29 49 98l45 238q8 38 8 64q0 30 -10 46 q-15 31 -88 31h-16q-70 0 -103 -29q-25 -25 -38 -62.5t-27 -119.5l-19 -94q-16 -85 -16 -119z" />
<glyph unicode="h" horiz-adv-x="1073" d="M-33 35q0 13 15 86l237 1216q6 28 21 38.5t47 10.5h200q58 0 58 -34q0 -20 -17 -99l-55 -282h6q94 51 228 51h4q272 0 272 -213q0 -85 -22 -193l-111 -557q-7 -32 -22 -45.5t-54 -13.5h-186q-33 0 -47.5 9t-14.5 30q0 18 13 78l98 508q6 34 6 57q0 78 -98 78 q-53 0 -90 -27q-34 -27 -49 -108l-111 -566q-7 -32 -22 -45.5t-54 -13.5h-190q-62 0 -62 35z" />
<glyph unicode="i" horiz-adv-x="544" d="M-23 35q0 9 15 82l160 827q6 31 23.5 45.5t55.5 14.5h189q31 0 44 -9t13 -28q0 -18 -18 -111l-156 -797q-5 -31 -22.5 -45t-55.5 -14h-188q-60 0 -60 35zM193 1204q0 226 204 226h15q147 0 147 -115q0 -225 -205 -225h-14q-147 0 -147 114z" />
<glyph unicode="j" horiz-adv-x="534" d="M-317 -328q0 16 10 74l18 100q5 28 18 39t44 11h39q80 0 118 42t62 168l162 838q6 31 23.5 45.5t55.5 14.5h189q31 0 44 -9t13 -28q0 -18 -18 -111l-148 -758q-29 -150 -61.5 -229.5t-83.5 -126.5q-110 -104 -330 -104h-110q-45 0 -45 34zM195 1204q0 226 204 226h15 q147 0 147 -115q0 -225 -205 -225h-14q-147 0 -147 114z" />
<glyph unicode="k" horiz-adv-x="1036" d="M-33 37q0 12 13 82l237 1208q6 31 24 45t58 14h186q32 0 45 -8.5t13 -27.5q0 -15 -13 -82l-118 -609h20q7 0 16 8t31 35l199 254q22 28 43 38t61 10h230q35 0 35 -25q0 -13 -27 -47l-301 -352q-26 -29 -34.5 -42t-8.5 -26q0 -15 29 -80l161 -364q9 -20 6 -35 q-7 -33 -49 -33h-205q-42 0 -59.5 11t-28.5 42l-110 283q-14 39 -21.5 50t-17.5 11h-21l-65 -336q-6 -32 -25.5 -46.5t-58.5 -14.5h-186q-58 0 -58 37z" />
<glyph unicode="l" horiz-adv-x="630" d="M0 160q0 49 31 211l186 956q7 36 22.5 47.5t57.5 11.5h186q41 0 53 -12q8 -8 9 -27q0 -9 -2 -20l-185 -952q-16 -74 -16 -92q0 -29 37 -29h57q29 0 39 -8t10 -29q0 -17 -12 -78l-14 -69q-9 -42 -25.5 -56t-54.5 -14h-139q-90 0 -135 13.5t-72 45.5q-33 39 -33 101z" />
<glyph unicode="m" horiz-adv-x="1619" d="M-33 37q0 3 15 86l159 823q6 31 22.5 44.5t51.5 13.5h107q34 0 47 -10t16 -38l4 -43h6q118 109 303 109h23q87 0 144.5 -28.5t72.5 -80.5h6q118 109 305 109h17q264 0 264 -213q0 -67 -23 -193l-108 -557q-6 -31 -24 -45t-56 -14h-189q-38 0 -49.5 14t-5.5 45l111 568 q6 34 6 57q0 76 -96 76q-54 0 -88 -27q-36 -29 -50 -106l-110 -568q-6 -31 -24 -45t-56 -14h-188q-38 0 -50 14t-6 45l111 568q6 34 6 57q0 76 -96 76q-55 0 -90 -27q-38 -31 -52 -106l-110 -568q-7 -32 -22 -45.5t-54 -13.5h-190q-60 0 -60 37z" />
<glyph unicode="n" horiz-adv-x="1071" d="M-33 37q0 3 15 86l159 823q6 31 23 44.5t51 13.5h107q32 0 44 -7t15 -30l6 -43h6q110 98 312 98h4q272 0 272 -213q0 -81 -23 -193l-110 -557q-7 -32 -22 -45.5t-54 -13.5h-186q-33 0 -47.5 9t-14.5 30q0 18 13 78l98 508q6 34 6 57q0 78 -98 78q-53 0 -90 -27 q-36 -28 -50 -108l-110 -566q-7 -32 -22 -45.5t-54 -13.5h-190q-60 0 -60 37z" />
<glyph unicode="o" horiz-adv-x="1064" d="M-4 272q0 51 17.5 161t41.5 210q27 114 70.5 185t120.5 120q118 74 321 74h37q189 0 285 -80q86 -71 86 -211q0 -130 -60 -364q-32 -127 -73.5 -197.5t-106.5 -112.5q-119 -75 -327 -75h-41q-190 0 -285 79q-86 71 -86 211zM324 322q0 -84 96 -84h4q64 0 100 26 q28 22 45.5 61t34.5 117q39 167 39 240q0 84 -96 84h-4q-63 0 -101 -27q-27 -21 -44 -59.5t-36 -118.5q-38 -163 -38 -239z" />
<glyph unicode="p" horiz-adv-x="1087" d="M-102 -324q0 23 12 86l233 1190q6 29 21.5 40.5t50.5 11.5h98q33 0 46 -8t16 -31l6 -41h4q121 98 324 98h14q281 0 281 -246q0 -74 -52 -350q-27 -142 -59 -225.5t-94 -134.5q-58 -48 -127.5 -66t-173.5 -18h-11q-51 0 -108.5 12t-91.5 29l-62 -314q-7 -44 -27 -57.5 t-73 -13.5h-160q-67 0 -67 38zM346 311q0 -39 25 -56t80 -17h10q31 0 53.5 5t39.5 19t27.5 28t21 44t16.5 54t16 69q35 168 35 221q0 86 -105 86h-14q-67 0 -100 -29.5t-48 -109.5l-41 -209q-16 -78 -16 -105z" />
<glyph unicode="q" horiz-adv-x="1077" d="M-4 258q0 74 16 162l33 172q45 239 151 334.5t312 95.5h20q91 0 157.5 -26t94.5 -72h4l19 41q10 24 21 31.5t36 7.5h129q26 0 35 -12q6 -7 6 -21q0 -9 -2 -21l-240 -1241q-9 -45 -25.5 -58t-68.5 -13h-166q-67 0 -67 38q0 23 12 86l51 263q-84 -43 -217 -43h-8 q-143 0 -223 66.5t-80 209.5zM328 319q0 -81 102 -81h10q64 0 99 24q38 26 55 115l35 176q16 81 16 127q0 45 -23 64.5t-79 19.5h-8q-79 0 -113 -37q-28 -33 -47 -137l-27 -133q-20 -106 -20 -138z" />
<glyph unicode="r" horiz-adv-x="757" d="M-33 37q0 9 15 86l159 823q6 33 22 45.5t52 12.5h107q31 0 44.5 -9.5t14.5 -33.5l4 -62h4q43 57 102.5 81t145.5 24h94q39 0 39 -23q0 -11 -12 -84l-19 -100q-6 -34 -19 -46t-44 -12h-58q-116 0 -165 -43q-45 -40 -68 -166l-92 -471q-7 -32 -22 -45.5t-54 -13.5h-190 q-60 0 -60 37z" />
<glyph unicode="s" horiz-adv-x="927" d="M-37 66q-1 5 -1 11q0 17 9 44l39 129q12 39 43 39q17 0 56.5 -12.5t96 -25.5t116.5 -13h4q73 0 106 15t33 54q0 23 -23.5 34t-109.5 34l-33 8q-112 28 -162 78q-63 63 -63 186q0 190 112 282.5t353 92.5h10q144 0 266 -37q27 -8 27 -27q0 -8 -19 -75l-30 -113 q-7 -31 -35 -31q-9 0 -85 13.5t-128 13.5h-4q-138 0 -138 -61q0 -23 22 -35.5t99 -32.5l33 -8q135 -35 186 -88q52 -55 52 -150q0 -208 -117.5 -308.5t-355.5 -100.5h-13q-73 0 -168 16.5t-149 38.5q-25 10 -29 29z" />
<glyph unicode="t" horiz-adv-x="792" d="M20 774q0 8 9 57l14 68q8 37 20.5 51t47.5 23l112 26l39 201q5 31 22.5 45.5t57.5 14.5h186q38 0 50.5 -14.5t7.5 -45.5l-39 -196h170q24 0 33.5 -5t9.5 -22q0 -11 -12 -72l-19 -98q-7 -37 -19.5 -48t-41.5 -11h-170l-78 -402q-6 -30 -6 -47q0 -27 19 -36t65 -9h94 q29 0 39 -7.5t10 -27.5q0 -13 -14 -92l-11 -51q-9 -45 -24 -60.5t-53 -15.5h-164q-219 0 -273 76q-28 42 -28 102q0 62 16 146l84 424h-108q-46 0 -46 26z" />
<glyph unicode="u" horiz-adv-x="1052" d="M2 229q0 49 21 156l108 559q6 32 23 46t57 14h186q62 0 62 -35q0 -14 -21 -117l-94 -485q-6 -30 -6 -56q0 -65 90 -65h8q47 0 84 26q31 24 47 105l111 567q6 32 23 46t57 14h186q62 0 62 -39q0 -9 -13 -76l-106 -545q-20 -104 -54.5 -170.5t-89.5 -105.5 q-63 -46 -140.5 -66t-201.5 -20h-22q-181 0 -279 61.5t-98 185.5z" />
<glyph unicode="v" horiz-adv-x="1003" d="M45 944v8q0 26 11 38q13 14 50 14h191q34 0 46 -9t13 -39q13 -339 56 -604h8q135 250 278 596q14 34 29 45t49 11h197q47 0 47 -27q0 -31 -45 -123q-94 -202 -219 -436t-217 -377q-27 -41 -80 -41h-203q-31 0 -46.5 9.5t-21.5 33.5q-49 178 -90 437.5t-53 463.5z" />
<glyph unicode="w" horiz-adv-x="1411" d="M45 942q0 35 16 48.5t50 13.5h198q30 0 41.5 -9t11.5 -28q0 -31 -4 -109q-12 -257 -12 -436v-68h8q165 413 211 553q9 28 23 37.5t47 9.5h184q32 0 43.5 -11.5t11.5 -37.5q-1 -93 -1 -180q0 -198 6 -371h6q137 339 213 604q8 27 21.5 36.5t45.5 9.5h211q41 0 41 -25 t-33 -107q-181 -453 -354 -823q-14 -32 -31 -40.5t-53 -8.5h-190q-38 0 -53 12t-17 35q-17 254 -17 442q0 45 1 86h-8q-41 -108 -218 -528q-11 -25 -29 -36t-53 -11h-196q-35 0 -51 10t-19 35q-20 159 -34.5 418.5t-16.5 478.5z" />
<glyph unicode="x" horiz-adv-x="1060" d="M-102 27q0 19 65 106l256 344q23 37 23 55q0 10 -6 25l-138 332q-26 60 -26 84q0 17 11 24t36 7h227q37 0 50 -7.5t20 -35.5l78 -279q7 -20 16 -20q10 0 18 14l170 276q22 33 39 42.5t56 9.5h233q39 0 39 -25q0 -16 -55 -90l-275 -354q-22 -31 -22 -52q0 -13 6 -28 l149 -314q41 -87 41 -108q0 -33 -49 -33h-205q-34 0 -48 11t-25 40l-103 262q-7 21 -16 21t-19 -15l-174 -276q-15 -23 -32 -33t-50 -10h-256q-15 0 -24.5 7.5t-9.5 19.5z" />
<glyph unicode="y" horiz-adv-x="999" d="M47 948q0 56 74 56h172q35 0 48 -10t13 -40q6 -356 35 -684h10q180 361 291 678q10 31 28 43.5t50 12.5h197q50 0 50 -33q0 -12 -7 -29q-277 -690 -674 -1313q-28 -47 -64 -47q-14 0 -61 19l-109 43q-43 17 -43 45q0 16 19 43q96 140 162 252q-84 27 -107 151 q-24 125 -47 367q-37 378 -37 446z" />
<glyph unicode="z" horiz-adv-x="903" d="M-88 37q0 17 12 69q11 48 25.5 78t48.5 68l434 491h-330q-22 0 -30.5 6.5t-8.5 22.5q0 6 13 82l16 90q7 37 21 48.5t45 11.5h696q24 0 32.5 -8t8.5 -27q0 -18 -8 -64q-7 -44 -22 -73t-52 -72l-446 -500h340q28 0 39.5 -7t11.5 -28q0 -3 -1.5 -11t-6 -31t-9.5 -50l-16 -86 q-4 -27 -17.5 -37t-43.5 -10h-697q-55 0 -55 37z" />
<glyph unicode="{" horiz-adv-x="819" d="M35 502q0 17 8 53l27 133q6 33 19 45t40 15q121 15 135 102l47 240q31 162 110.5 229t223.5 67h189q26 0 36.5 -7t10.5 -25q0 -12 -9 -56l-26 -135q-9 -55 -64 -55h-96q-28 0 -42.5 -11.5t-20.5 -43.5l-41 -209q-39 -196 -187 -234l-2 -8q134 -45 96 -233l-34 -181 q-9 -41 -9 -57q0 -27 46 -27h100q39 0 39 -30q0 -16 -8 -60l-25 -129q-8 -35 -23 -47t-55 -12h-178q-117 0 -174 42.5t-57 137.5q0 47 12 117l47 239q9 45 -14 69.5t-82 33.5q-39 6 -39 37z" />
<glyph unicode="|" horiz-adv-x="573" d="M0 0q0 21 12 80l242 1249q8 44 29 60t75 16h146q69 0 69 -47q0 -10 -12 -80l-242 -1249q-8 -44 -29 -60t-75 -16h-145q-70 0 -70 47z" />
<glyph unicode="}" horiz-adv-x="819" d="M-92 -141q0 16 8 55l27 135q9 55 63 55h96q28 0 43 12t21 44l41 209q39 196 186 233l2 8q-134 45 -96 234l35 180q8 36 8 57q0 27 -45 27h-100q-39 0 -39 31q0 15 8 59l24 129q8 35 23 47t55 12h178q117 0 174.5 -42.5t57.5 -137.5q0 -46 -12 -116l-48 -240 q-9 -45 14.5 -69t82.5 -33q39 -6 39 -37q0 -13 -9 -54l-26 -133q-6 -32 -19 -44t-41 -15q-121 -15 -135 -103l-47 -239q-31 -162 -111 -229.5t-223 -67.5h-188q-25 0 -36 7.5t-11 25.5z" />
<glyph unicode="~" horiz-adv-x="1167" d="M72 539q0 25 37 82q69 98 144 150t165 52q53 0 104.5 -18t85 -40t75.5 -40t79 -18q39 0 67 20.5t58 65.5q14 23 29.5 27t44.5 -13l90 -62q24 -16 24 -36q0 -25 -37 -82q-70 -98 -144.5 -150.5t-164.5 -52.5q-53 0 -104.5 18.5t-85 40t-75.5 40t-79 18.5q-39 0 -67 -20.5 t-58 -65.5q-15 -23 -30 -27.5t-44 12.5l-90 62q-24 16 -24 37z" />
<glyph unicode="&#xa1;" horiz-adv-x="522" d="M-106 -311q0 16 22 106l174 721q12 49 31 62.5t67 13.5h125q56 0 56 -45q0 -18 -7 -62l-110 -755q-7 -54 -26.5 -70t-73.5 -16h-185q-40 0 -56.5 10t-16.5 35zM119 811q0 96 55 153.5t156 57.5h6q68 0 106.5 -33t38.5 -96q0 -96 -55 -153.5t-156 -57.5h-6 q-68 0 -106.5 33t-38.5 96z" />
<glyph unicode="&#xa2;" d="M143 264q0 74 21 191l29 155q24 123 65 201t111 127q120 84 317 84h35l27 137q3 16 9.5 22.5t20.5 6.5h60q17 0 22 -7t2 -22l-31 -151q100 -18 177 -56q30 -14 30 -39q0 -17 -22 -69l-43 -96q-17 -39 -41 -39q-14 0 -37 10q-70 30 -113 39l-100 -518q79 10 131 28 q16 6 33 6q28 0 31 -34l10 -103q4 -46 4 -61q0 -19 -12 -29.5t-43 -19.5q-102 -31 -203 -39l-27 -144q-3 -15 -10.5 -21.5t-24.5 -6.5h-59q-15 0 -19 6.5t-1 21.5l26 138h-14q-227 0 -307 100q-54 65 -54 182zM475 342q0 -46 21 -70.5t71 -31.5l103 520q-49 -8 -88 -39 q-55 -49 -76 -172l-17 -92q-14 -79 -14 -115z" />
<glyph unicode="&#xa3;" d="M-8 51l24 123q4 23 13 34t28 21q93 50 140 114t65 159l8 37h-139q-27 0 -35 10t-2 35l31 127q5 18 14.5 27t30.5 12l143 20l25 119q44 220 131 317q122 137 369 137h4q172 0 313 -53q34 -13 40 -33.5t-7 -50.5l-49 -135q-11 -28 -28 -32.5t-58 8.5q-112 38 -185 38 q-93 0 -135 -51q-36 -41 -55 -147l-21 -105h289q32 0 41.5 -12.5t3.5 -46.5l-26 -139q-6 -29 -17 -37t-41 -8h-299l-6 -33q-15 -79 -54.5 -144.5t-88.5 -99.5h497q35 0 46.5 -14.5t5.5 -50.5l-27 -136q-8 -37 -22.5 -49t-53.5 -12h-864q-33 0 -44 11t-5 40z" />
<glyph unicode="&#xa4;" d="M20 292.5q2 18.5 29 41.5l131 106q-8 50 -8 80q0 163 88 275l-90 102q-18 20 -13.5 39t33.5 45l138 119q24 21 40 21t35 -21l97 -113q76 27 162 27q79 0 153 -31l135 111q28 23 44 22.5t34 -22.5l100 -129q19 -24 17 -42.5t-29 -41.5l-131 -107q8 -50 8 -80 q0 -162 -88 -274l90 -103q18 -20 13.5 -39t-33.5 -45l-137 -118q-24 -21 -40.5 -21t-35.5 21l-96 112q-74 -26 -162 -26q-82 0 -154 30l-135 -110q-28 -23 -44 -22.5t-34 22.5l-100 129q-19 24 -17 42.5zM444 580q0 -53 30.5 -84t82.5 -31q77 0 120.5 51t43.5 119 q0 52 -30 82.5t-83 32.5q-77 0 -120.5 -51t-43.5 -119z" />
<glyph unicode="&#xa5;" d="M49 185q-7 11 0 42l19 99q6 32 16.5 42.5t38.5 10.5h252q-3 15 -11 43.5t-10 38.5h-215q-28 0 -35 11t0 42l19 98q6 33 16.5 43.5t38.5 10.5h119q-80 324 -100 591q-6 68 49 68h207q29 0 38 -0.5t21 -5t15 -14.5t5 -29q17 -295 66 -582h10q121 213 291 582q14 36 30 42.5 t66 6.5h201q54 0 25 -68q-134 -287 -330 -591h110q28 0 35 -11.5t0 -42.5l-18 -98q-6 -32 -16.5 -42.5t-38.5 -10.5h-209l-54 -82h246q28 0 35 -11t0 -42l-18 -99q-6 -32 -17 -42.5t-39 -10.5h-243l-21 -111q-8 -37 -24 -50t-54 -13h-198q-38 0 -49.5 13t-4.5 50l21 111 h-250q-28 0 -35 11z" />
<glyph unicode="&#xa6;" horiz-adv-x="573" d="M0 6q0 19 12 80l80 403q10 57 29.5 73t64.5 16h166q34 0 48 -9.5t14 -33.5q0 -15 -11 -76l-81 -418q-10 -56 -37 -72t-88 -16h-115q-44 0 -63 12.5t-19 40.5zM160 823q0 21 10 76l82 418q10 56 37 72t88 16h115q44 0 62.5 -12.5t18.5 -40.5q0 -18 -12 -80l-80 -404 q-10 -56 -29.5 -72t-64.5 -16h-166q-34 0 -47.5 9.5t-13.5 33.5z" />
<glyph unicode="&#xa7;" horiz-adv-x="1011" d="M-4 82q0 20 22 74l43 98q11 27 20.5 38t22.5 11q17 0 37 -8q124 -51 236 -51h10q63 0 91 13.5t28 41.5q0 21 -22 31.5t-83 23.5l-75 17q-134 29 -186 77.5t-52 122.5q0 72 44.5 131t121.5 97q-39 24 -60.5 70.5t-23.5 103.5q0 49 10 94q18 74 65 129.5t113 86.5t138 45.5 t151 14.5h15q159 0 276 -45q25 -9 25 -28q0 -16 -23 -72l-51 -123q-11 -28 -31 -28q-10 0 -43 10q-102 28 -176 28h-8q-69 0 -95 -13t-26 -38q0 -15 25.5 -25.5t95.5 -25.5l74 -16q115 -25 165.5 -64.5t49.5 -107.5q0 -78 -44 -142.5t-124 -109.5q92 -43 92 -172 q0 -194 -124.5 -291.5t-350.5 -97.5h-25q-71 0 -158 17.5t-149 43.5q-41 16 -41 39zM375 684q0 -22 20 -38.5t72 -27.5l98 -22q35 31 35 76q0 20 -23 33.5t-79 25.5l-84 19q-39 -30 -39 -66z" />
<glyph unicode="&#xa8;" horiz-adv-x="800" d="M170 1255q0 24 6 48l2 8q16 67 51.5 100t104.5 33h14q51 0 80 -25t29 -69q0 -23 -6 -47l-2 -9q-16 -67 -51.5 -100t-104.5 -33h-14q-51 0 -80 25t-29 69zM551 1255q0 24 6 48l2 8q16 67 51.5 100t104.5 33h14q51 0 80 -25t29 -69q0 -19 -7 -47l-2 -9q-16 -67 -51 -100 t-104 -33h-15q-51 0 -79.5 25t-28.5 69z" />
<glyph unicode="&#xa9;" horiz-adv-x="1728" d="M86 567q0 244 111 445.5t317.5 321.5t468.5 120q318 0 488.5 -161.5t170.5 -436.5q0 -244 -111 -445.5t-317.5 -321.5t-468.5 -120q-318 0 -488.5 161.5t-170.5 436.5zM346 573q0 -176 110.5 -279.5t325.5 -103.5q139 0 253 51.5t189.5 141.5t116.5 210t41 257 q0 176 -110.5 279.5t-325.5 103.5q-139 0 -253 -51.5t-189.5 -141.5t-116.5 -210t-41 -257zM524 541q0 43 13 112l24 133q32 168 114 239t234 71q118 0 213 -43q21 -9 24.5 -22t-5.5 -42l-27 -78q-8 -22 -18.5 -26.5t-36.5 4.5q-81 29 -137 29q-58 0 -84.5 -26.5 t-40.5 -96.5l-31 -158q-8 -40 -8 -62q0 -33 21 -49t71 -16q45 0 131 25q26 6 35 0.5t12 -25.5l10 -80q3 -24 -9 -37.5t-48 -25.5q-103 -35 -195 -35q-137 0 -199.5 51.5t-62.5 157.5z" />
<glyph unicode="&#xaa;" horiz-adv-x="702" d="M63 725q0 63 13 109q24 85 94.5 122t194.5 37h12q59 0 100 -6q6 27 6 41q0 53 -94 53h-6q-62 0 -145 -22q-12 -4 -25 -4t-16 28l-4 39q-1 7 -2.5 20t-3 23.5t-1.5 14.5q0 23 23 30q117 37 250 37h10q101 0 162 -33q67 -39 67 -120q0 -50 -22 -174l-60 -293 q-8 -39 -45 -39h-92q-19 0 -26 5t-9 19l-2 31h-4q-44 -70 -180 -70h-20q-86 0 -130.5 45.5t-44.5 106.5zM262 770q0 -45 62 -45h12q49 0 72 20q25 19 34 66l9 39q-36 4 -80 4h-11q-44 0 -63.5 -9.5t-28.5 -35.5q-6 -15 -6 -39z" />
<glyph unicode="&#xab;" horiz-adv-x="1517" d="M18 440q0 18 7 49q9 39 22 57t51 46l459 319q33 23 49 23q21 0 45 -31l74 -92q35 -43 35 -66q0 -17 -7 -27t-30 -28l-322 -241l197 -213q27 -30 27 -52q0 -25 -37 -57l-96 -76q-42 -31 -56 -31q-20 0 -45 25l-336 322q-37 37 -37 73zM700 440q0 18 7 49q9 39 22 57t51 46 l459 319q33 23 49 23q21 0 45 -31l74 -92q35 -43 35 -66q0 -17 -7 -27t-30 -28l-322 -241l197 -213q27 -30 27 -52q0 -25 -37 -57l-96 -76q-42 -31 -56 -31q-20 0 -45 25l-336 322q-37 37 -37 73z" />
<glyph unicode="&#xac;" d="M68 461l24 127q9 50 25 66t57 16h815q41 0 55.5 -19.5t6.5 -62.5l-88 -455q-8 -38 -24 -52.5t-56 -14.5h-138q-41 0 -55 15t-6 52l49 254h-612q-39 0 -50 17.5t-3 56.5z" />
<glyph unicode="&#xad;" horiz-adv-x="745" d="M33 451v153q0 37 18 51.5t64 14.5h450q46 0 64 -14.5t18 -51.5v-153q0 -38 -16 -52t-66 -14h-450q-50 0 -66 14t-16 52z" />
<glyph unicode="&#xae;" horiz-adv-x="1728" d="M86 567q0 244 111 445.5t317.5 321.5t468.5 120q318 0 488.5 -161.5t170.5 -436.5q0 -244 -111 -445.5t-317.5 -321.5t-468.5 -120q-318 0 -488.5 161.5t-170.5 436.5zM346 573q0 -176 110.5 -279.5t325.5 -103.5q139 0 253 51.5t189.5 141.5t116.5 210t41 257 q0 176 -110.5 279.5t-325.5 103.5q-139 0 -253 -51.5t-189.5 -141.5t-116.5 -210t-41 -257zM535 387l120 625q6 35 20 50t50 19q67 9 195 9q272 0 272 -199q0 -85 -50.5 -158t-142.5 -110l105 -224q15 -29 6 -42t-49 -13h-129q-28 0 -39.5 7.5t-20.5 31.5l-79 213h-5 l-38 -209q-5 -25 -17.5 -34t-46.5 -9h-98q-36 0 -47 9t-6 34zM825 756h35q56 0 78 20q14 13 23.5 38t9.5 46q0 58 -74 58q-23 0 -41 -3z" />
<glyph unicode="&#xaf;" horiz-adv-x="802" d="M211 1243l18 100q6 32 17 42t39 10h469q25 0 31.5 -10t2.5 -39l-18 -101q-6 -32 -16.5 -41.5t-38.5 -9.5h-469q-25 0 -32 10t-3 39z" />
<glyph unicode="&#xb0;" horiz-adv-x="745" d="M145 1171q-1 97 43.5 180.5t130.5 135t195 51.5q113 0 184.5 -71t71.5 -179q0 -162 -105 -262t-262 -100q-112 0 -184 69.5t-74 175.5zM362 1208q0 -33 20.5 -54t53.5 -21q45 0 78 34.5t33 85.5q0 33 -20.5 54.5t-53.5 21.5q-45 0 -78 -34.5t-33 -86.5z" />
<glyph unicode="&#xb1;" d="M-16 74l24 127q9 50 25 66t57 16h825q40 0 51 -17.5t3 -56.5l-25 -127q-9 -50 -25 -66t-57 -16h-825q-39 0 -50 17.5t-3 56.5zM143 762l23 119q9 48 23.5 62.5t54.5 14.5h243l50 254q8 42 23.5 55t64.5 13h143q46 0 58 -15.5t3 -62.5l-47 -244h244q37 0 47 -16t2 -53 l-22 -119q-9 -48 -24 -63t-54 -15h-244l-49 -254q-8 -41 -23.5 -54t-64.5 -13h-143q-46 0 -58.5 15.5t-3.5 62.5l47 243h-243q-37 0 -47.5 16.5t-2.5 53.5z" />
<glyph unicode="&#xb2;" horiz-adv-x="917" d="M188 918l13 69q22 119 73.5 184.5t163.5 116.5l68 31q70 31 93.5 50t23.5 46q0 45 -70 45q-74 0 -176 -30q-22 -6 -33.5 0t-15.5 28l-25 131q-4 24 3.5 36t31.5 20q131 41 272 41h8q131 0 202 -57.5t71 -168.5q0 -106 -43 -167t-170 -119l-72 -33q-66 -30 -88.5 -44.5 t-28.5 -29.5h273q32 0 39 -10.5t0 -48.5l-21 -103q-8 -36 -18 -46.5t-41 -10.5h-479q-41 0 -51.5 13.5t-2.5 56.5z" />
<glyph unicode="&#xb3;" horiz-adv-x="917" d="M176 912.5q-6 14.5 4 45.5l37 113q7 24 19.5 32.5t42.5 0.5q109 -31 182 -31q104 0 104 74q0 22 -17.5 30.5t-60.5 8.5h-43q-27 0 -34 8t-2 35l16 80q5 26 14.5 34.5t36.5 8.5h35q104 0 104 63q0 47 -71 47q-68 0 -166 -16q-24 -4 -33.5 5t-11.5 34l-6 100q-1 30 10 44.5 t41 23.5q112 33 233 33h4q277 0 277 -193q0 -71 -32.5 -129.5t-100.5 -87.5v-6q37 -19 55 -47.5t18 -79.5q0 -134 -100 -213.5t-258 -79.5h-4q-139 0 -258 39q-29 9 -35 23.5z" />
<glyph unicode="&#xb4;" horiz-adv-x="847" d="M287 1260q0 17 30 38l361 265q25 18 43 18q20 0 35 -27l73 -127q11 -18 11 -30q0 -27 -47 -54l-359 -215q-22 -14 -39 -14q-19 0 -37 27l-59 90q-12 18 -12 29z" />
<glyph unicode="&#xb6;" horiz-adv-x="1359" d="M84 891q0 78 33 157.5t90 137.5q151 157 483 157h703q39 0 39 -24q0 -7 -9 -51l-26 -146q-4 -26 -17.5 -36.5t-40.5 -10.5h-122l-240 -1237q-7 -36 -24.5 -47.5t-55.5 -11.5h-195q-45 0 -45 33q0 15 11 71l231 1192h-129l-240 -1237q-7 -36 -24 -47.5t-55 -11.5h-195 q-45 0 -45 33q0 20 10 71l133 680q-133 25 -202.5 110t-67.5 218z" />
<glyph unicode="&#xb7;" horiz-adv-x="493" d="M47 518q0 45 12 103q21 85 67 118t126 33h18q140 0 140 -96q0 -50 -15 -109q-21 -85 -66 -118t-124 -33h-19q-139 0 -139 102z" />
<glyph unicode="&#xb8;" horiz-adv-x="909" d="M100.5 -448q-4.5 12 1.5 34l23 72q7 22 19 27t32 -2q69 -21 131 -21q76 0 76 55q0 33 -53 33h-6q-23 0 -51 -5t-37 -5q-12 0 -23 14l-18 29q-9 15 -9 27q0 9 15 43l63 131q13 26 37 26h111q38 0 22 -35l-37 -84q35 7 58 7q67 0 109.5 -36t43.5 -110q0 -108 -78.5 -179 t-203.5 -71q-127 0 -203 31q-18 7 -22.5 19z" />
<glyph unicode="&#xb9;" horiz-adv-x="917" d="M201 905l22 119q6 35 17.5 46t42.5 11h125l57 291h-8l-111 -49q-21 -9 -33.5 -10.5t-21 5t-15.5 23.5l-45 103q-13 27 -10.5 43t27.5 29l252 122q62 33 127 33h98q33 0 43 -12t4 -45l-104 -533h112q32 0 40.5 -11t2.5 -46l-22 -119q-6 -36 -17.5 -46.5t-46.5 -10.5h-495 q-29 0 -38 13t-3 44z" />
<glyph unicode="&#xba;" horiz-adv-x="729" d="M94 768q0 57 25 180q31 159 111.5 229t232.5 70h12q123 0 185.5 -49.5t62.5 -142.5q0 -58 -25 -183q-31 -160 -109 -229.5t-233 -69.5h-12q-124 0 -187 49.5t-63 145.5zM309 809q0 -55 68 -55h8q41 0 63 21.5t35 82.5q25 122 25 152q0 57 -64 57h-8q-40 0 -64.5 -24.5 t-37.5 -86.5q-25 -122 -25 -147z" />
<glyph unicode="&#xbb;" horiz-adv-x="1517" d="M10 209q0 17 7 27t30 28l322 242l-197 213q-27 30 -27 51q0 25 37 57l97 76q4 3 10.5 8t9.5 7t8 5.5t7.5 5t6 3t7 2t6.5 0.5q20 0 45 -25l336 -321q37 -37 37 -74q0 -18 -7 -49q-9 -39 -22 -57t-51 -46l-459 -319q-33 -23 -49 -23q-21 0 -45 31l-74 92q-35 43 -35 66z M694 209q0 17 7 27t30 28l322 242l-197 213q-27 30 -27 51q0 25 37 57l97 76q4 3 10.5 8t9.5 7t8 5.5t7.5 5t6 3t7 2t6.5 0.5q20 0 45 -25l336 -321q37 -37 37 -74q0 -22 -6 -49q-9 -38 -22.5 -56.5t-51.5 -46.5l-459 -319q-33 -23 -49 -23q-21 0 -45 31l-74 92 q-35 43 -35 66z" />
<glyph unicode="&#xbc;" horiz-adv-x="2142" d="M160 557l22 119q6 35 17 46t43 11h125l57 291h-8l-111 -49q-21 -9 -33 -10.5t-20.5 5t-15.5 23.5l-46 103q-13 27 -10.5 42.5t27.5 28.5l252 123q62 33 127 33h98q33 0 43 -12t4 -45l-104 -533h112q32 0 40.5 -11t2.5 -46l-22 -119q-6 -36 -17.5 -46.5t-46.5 -10.5h-495 q-29 0 -38 13t-3 44zM486.5 -3q-8.5 15 7.5 38l974 1272q15 21 31.5 28.5t48.5 7.5h176q27 0 36 -15t-7 -38l-975 -1272q-15 -21 -31.5 -28.5t-48.5 -7.5h-176q-27 0 -35.5 15zM1223 229l10 52q6 28 17 47.5t40 54.5l322 385q26 32 47 43.5t53 11.5h180q39 0 48.5 -13 t3.5 -50l-74 -383h55q24 0 30.5 -9t2.5 -36l-21 -107q-6 -32 -16 -40.5t-35 -8.5h-55l-25 -127q-6 -29 -18.5 -39t-44.5 -10h-148q-29 0 -39 10.5t-6 36.5l27 129h-309q-34 0 -42.5 10.5t-2.5 42.5zM1493 377h123l37 196h-4z" />
<glyph unicode="&#xbd;" horiz-adv-x="2142" d="M156 557l22 119q6 35 17 46t43 11h124l58 291h-8l-111 -49q-21 -9 -33.5 -10.5t-21 5t-15.5 23.5l-45 103q-13 27 -10.5 42.5t27.5 28.5l252 123q62 33 127 33h98q33 0 43 -12t4 -45l-104 -533h112q32 0 40.5 -11t2.5 -46l-22 -119q-6 -36 -17.5 -46.5t-46.5 -10.5h-495 q-29 0 -38 13t-3 44zM470 -3q-9 15 7 38l975 1272q15 21 31.5 28.5t48.5 7.5h176q27 0 36 -15t-7 -38l-975 -1272q-15 -21 -31.5 -28.5t-48.5 -7.5h-176q-27 0 -36 15zM1313 74l12 69q22 119 74 184.5t164 116.5l67 31q70 31 93.5 50t23.5 46q0 45 -70 45q-74 0 -176 -30 q-22 -6 -33.5 0t-15.5 28l-25 131q-4 24 3.5 36t31.5 20q131 41 273 41h8q131 0 201.5 -57.5t70.5 -168.5q0 -106 -43 -167t-170 -119l-71 -33q-66 -30 -88.5 -44.5t-28.5 -29.5h272q32 0 39 -10.5t0 -48.5l-20 -103q-8 -36 -18.5 -46.5t-41.5 -10.5h-479q-41 0 -51 13.5 t-2 56.5z" />
<glyph unicode="&#xbe;" horiz-adv-x="2142" d="M148 563q-6 15 4 45l36 113q7 24 19.5 32.5t42.5 0.5q109 -31 182 -31q105 0 105 74q0 22 -17.5 30.5t-60.5 8.5h-43q-28 0 -35 8.5t-2 34.5l16 79q5 26 14.5 34.5t36.5 8.5h35q105 0 105 64q0 47 -72 47q-68 0 -166 -16q-24 -4 -33.5 5t-11.5 34l-6 100q-1 30 10 44.5 t41 23.5q108 32 234 32h4q276 0 276 -192q0 -71 -32.5 -129.5t-100.5 -87.5v-6q37 -19 55.5 -47.5t18.5 -79.5q0 -134 -100.5 -213.5t-258.5 -79.5h-4q-139 0 -258 39q-28 9 -34 24zM464 -3q-9 15 7 38l975 1272q15 21 31.5 28.5t48.5 7.5h176q27 0 36 -15t-7 -38 l-975 -1272q-15 -21 -31.5 -28.5t-48.5 -7.5h-176q-27 0 -36 15zM1192 229l10 52q6 27 17 46.5t41 55.5l321 385q26 32 47 43.5t53 11.5h181q38 0 47.5 -13t3.5 -50l-74 -383h55q24 0 30.5 -9t2.5 -36l-20 -107q-6 -32 -16.5 -40.5t-35.5 -8.5h-55l-24 -127q-6 -29 -19 -39 t-45 -10h-147q-29 0 -39 10.5t-6 36.5l26 129h-309q-34 0 -42.5 10.5t-2.5 42.5zM1462 377h123l37 196h-4z" />
<glyph unicode="&#xbf;" horiz-adv-x="948" d="M-74 -51q0 104 28.5 174.5t83 118t155.5 100.5l69 37q108 58 143.5 90.5t45.5 85.5q3 20 14.5 27.5t38.5 7.5h168q33 0 33 -25q0 -116 -49 -197.5t-173 -146.5l-69 -37q-85 -45 -118.5 -80t-33.5 -96q0 -82 121 -82h6q100 0 250 47q55 18 63 -22l33 -152q9 -27 1 -43.5 t-44 -29.5q-82 -30 -189.5 -48t-203.5 -18h-8q-365 0 -365 289zM444 811q0 96 55 153.5t156 57.5h7q68 0 106.5 -33t38.5 -96q0 -96 -55 -153.5t-156 -57.5h-6q-68 0 -107 33t-39 96z" />
<glyph unicode="&#xc0;" horiz-adv-x="1239" d="M-102 39q0 25 26 82q279 578 570 1112q28 51 64 71.5t97 20.5h176q62 0 90.5 -20.5t34.5 -71.5q56 -406 127 -1075q9 -106 9 -109q0 -25 -18.5 -37t-63.5 -12h-181q-48 0 -68.5 15t-23.5 53l-14 170h-383l-80 -170q-20 -41 -41.5 -54.5t-79.5 -13.5h-182q-59 0 -59 39z M436 1667q0 13 17 39l94 141q19 29 43 29q20 0 47 -21l346 -249q18 -13 18 -31q0 -17 -24 -51l-59 -80q-25 -35 -48 -35q-17 0 -41 12l-362 203q-31 17 -31 43zM451 508h264q-6 132 -29 459h-22q-105 -225 -213 -459z" />
<glyph unicode="&#xc1;" horiz-adv-x="1239" d="M-102 39q0 25 26 82q279 578 570 1112q28 51 64 71.5t97 20.5h176q62 0 90.5 -20.5t34.5 -71.5q56 -406 127 -1075q9 -106 9 -109q0 -25 -18.5 -37t-63.5 -12h-181q-48 0 -68.5 15t-23.5 53l-14 170h-383l-80 -170q-20 -41 -41.5 -54.5t-79.5 -13.5h-182q-59 0 -59 39z M451 508h264q-6 132 -29 459h-22q-105 -225 -213 -459zM512 1597q0 19 37 37l399 201q20 10 35 10q26 0 39 -33l53 -137q6 -15 6 -26q0 -29 -57 -50l-389 -151q-20 -8 -35 -8q-26 0 -39 33l-43 98q-6 15 -6 26z" />
<glyph unicode="&#xc2;" horiz-adv-x="1239" d="M-102 39q0 25 26 82q279 578 570 1112q28 51 64 71.5t97 20.5h176q62 0 90.5 -20.5t34.5 -71.5q56 -406 127 -1075q9 -106 9 -109q0 -25 -18.5 -37t-63.5 -12h-181q-48 0 -68.5 15t-23.5 53l-14 170h-383l-80 -170q-20 -41 -41.5 -54.5t-79.5 -13.5h-182q-59 0 -59 39z M451 508h264q-6 132 -29 459h-22q-105 -225 -213 -459zM455 1497q-25 25 2 51l233 219q27 27 62 27h125q33 0 49 -27l143 -215q12 -18 12 -30q0 -16 -22 -31l-105 -68q-23 -14 -32 -14q-17 0 -33 23l-111 153h-10l-170 -153q-26 -23 -41 -23q-13 0 -25 12z" />
<glyph unicode="&#xc3;" horiz-adv-x="1239" d="M-102 39q0 25 26 82q279 578 570 1112q28 51 64 71.5t97 20.5h176q62 0 90.5 -20.5t34.5 -71.5q56 -406 127 -1075q9 -106 9 -109q0 -25 -18.5 -37t-63.5 -12h-181q-48 0 -68.5 15t-23.5 53l-14 170h-383l-80 -170q-20 -41 -41.5 -54.5t-79.5 -13.5h-182q-59 0 -59 39z M397 1538q115 195 265 195q44 0 79.5 -15t54.5 -32.5t44.5 -32.5t50.5 -15q28 0 50.5 17.5t51.5 58.5q13 18 25.5 19t28.5 -11l75 -49q31 -19 11 -53q-115 -195 -265 -195q-43 0 -78.5 15t-54 32.5t-44 32.5t-52.5 15q-28 0 -50.5 -17.5t-51.5 -58.5q-13 -18 -25.5 -19 t-28.5 11l-75 49q-31 19 -11 53zM451 508h264q-6 132 -29 459h-22q-105 -225 -213 -459z" />
<glyph unicode="&#xc4;" horiz-adv-x="1239" d="M-102 39q0 25 26 82q279 578 570 1112q28 51 64 71.5t97 20.5h176q62 0 90.5 -20.5t34.5 -71.5q56 -406 127 -1075q9 -106 9 -109q0 -25 -18.5 -37t-63.5 -12h-181q-48 0 -68.5 15t-23.5 53l-14 170h-383l-80 -170q-20 -41 -41.5 -54.5t-79.5 -13.5h-182q-59 0 -59 39z M449 1577q0 23 6 47l2 8q16 67 51 100t104 33h15q51 0 79.5 -25t28.5 -69q0 -23 -6 -47l-2 -8q-16 -67 -51.5 -100t-104.5 -33h-14q-51 0 -79.5 25t-28.5 69zM451 508h264q-6 132 -29 459h-22q-105 -225 -213 -459zM829 1577q0 19 7 47l2 8q16 67 51 100t104 33h15 q51 0 79.5 -25t28.5 -69q0 -23 -6 -47l-2 -8q-16 -67 -51.5 -100t-104.5 -33h-14q-51 0 -80 25t-29 69z" />
<glyph unicode="&#xc5;" horiz-adv-x="1239" d="M-102 39q0 25 26 82q279 578 570 1112q28 51 64 71.5t97 20.5h176q62 0 90.5 -20.5t34.5 -71.5q56 -406 127 -1075q9 -106 9 -109q0 -25 -18.5 -37t-63.5 -12h-181q-48 0 -68.5 15t-23.5 53l-14 170h-383l-80 -170q-20 -41 -41.5 -54.5t-79.5 -13.5h-182q-59 0 -59 39z M451 508h264q-6 132 -29 459h-22q-105 -225 -213 -459zM575 1563q0 105 70.5 175t173.5 70q81 0 128.5 -47t47.5 -125q0 -105 -70 -175t-173 -70q-79 0 -128 47.5t-49 124.5zM725 1585q0 -22 13.5 -33.5t35.5 -11.5q29 0 50.5 20.5t21.5 53.5q0 22 -13.5 33.5t-35.5 11.5 q-29 0 -50.5 -20.5t-21.5 -53.5z" />
<glyph unicode="&#xc6;" horiz-adv-x="1853" d="M-82 39q0 22 43 82q506 738 776 1112q36 51 77 71.5t104 20.5h862q27 0 37 -6t10 -21q0 -4 -15 -90l-18 -100q-8 -39 -20.5 -50t-59.5 -11h-424q-27 0 -39 -9t-18 -32q-20 -75 -45 -207h420q31 0 43 -6t12 -21q0 -29 -16 -100l-19 -84q-6 -26 -20.5 -36.5t-46.5 -10.5 h-426q-20 -105 -25 -146q-8 -52 -8 -86q0 -17 8 -23.5t29 -6.5h426q29 0 41 -7t12 -28q0 -18 -12 -94l-15 -87q-8 -37 -24 -50t-58 -13h-534q-115 0 -161 31.5t-46 115.5q0 39 6 91h-377l-112 -170q-28 -41 -52.5 -54.5t-82.5 -13.5h-181q-51 0 -51 39zM559 508h254l31 178 l74 361h-23q-48 -74 -168 -270.5t-168 -268.5z" />
<glyph unicode="&#xc7;" horiz-adv-x="1136" d="M57 342q0 107 76 479q33 158 76.5 251.5t116.5 154.5q137 116 413 116h15q203 0 362 -81q27 -14 27 -31q0 -24 -31 -92l-53 -117q-13 -31 -35 -31q-21 0 -41 10q-122 56 -233 56h-9q-124 0 -188 -70q-30 -33 -46.5 -82t-39.5 -162q-51 -254 -51 -350q0 -66 44.5 -95.5 t155.5 -29.5h13q129 0 258 47q24 9 37 9q25 0 30 -39l13 -90q10 -72 10 -93q0 -35 -74 -61q-153 -56 -366 -59q-2 -2 -2 -7l-37 -84q35 7 57 7q68 0 110.5 -36t43.5 -110q0 -108 -79 -179t-204 -71q-127 0 -203 31q-18 7 -22.5 19t2.5 34l22 72q7 22 19 27t32 -2 q69 -21 132 -21q75 0 75 55q0 33 -53 33h-6q-23 0 -51 -5t-37 -5q-12 0 -23 14l-18 29q-8 13 -8 27q0 12 14 43l64 131q0 1 1 4t1 4q-178 24 -250 127q-60 82 -60 223z" />
<glyph unicode="&#xc8;" horiz-adv-x="1067" d="M45 147q0 137 70 539q42 233 82 379q29 108 75.5 164.5t112.5 76t180 19.5h490q27 0 37 -6t10 -21q0 -4 -15 -90l-18 -100q-8 -39 -20.5 -50t-59.5 -11h-424q-27 0 -39 -9t-18 -32q-20 -75 -45 -207h420q31 0 43 -6t12 -21q0 -29 -16 -100l-19 -84q-6 -26 -20.5 -36.5 t-46.5 -10.5h-426q-20 -105 -25 -146q-8 -52 -8 -86q0 -17 8 -23.5t29 -6.5h426q29 0 41 -7t12 -28q0 -18 -12 -94l-15 -87q-8 -37 -24 -50t-58 -13h-534q-115 0 -160 31.5t-45 115.5zM389 1667q0 13 17 39l94 141q19 29 43 29q20 0 47 -21l346 -249q18 -13 18 -31 q0 -17 -24 -51l-60 -80q-25 -35 -47 -35q-17 0 -41 12l-362 203q-31 17 -31 43z" />
<glyph unicode="&#xc9;" horiz-adv-x="1067" d="M45 147q0 137 70 539q42 233 82 379q29 108 75.5 164.5t112.5 76t180 19.5h490q27 0 37 -6t10 -21q0 -4 -15 -90l-18 -100q-8 -39 -20.5 -50t-59.5 -11h-424q-27 0 -39 -9t-18 -32q-20 -75 -45 -207h420q31 0 43 -6t12 -21q0 -29 -16 -100l-19 -84q-6 -26 -20.5 -36.5 t-46.5 -10.5h-426q-20 -105 -25 -146q-8 -52 -8 -86q0 -17 8 -23.5t29 -6.5h426q29 0 41 -7t12 -28q0 -18 -12 -94l-15 -87q-8 -37 -24 -50t-58 -13h-534q-115 0 -160 31.5t-45 115.5zM489 1597q0 19 37 37l400 201q20 10 35 10q25 0 38 -33l54 -137q6 -15 6 -26 q0 -28 -58 -50l-389 -151q-20 -8 -34 -8q-26 0 -39 33l-43 98q-7 18 -7 26z" />
<glyph unicode="&#xca;" horiz-adv-x="1067" d="M45 147q0 137 70 539q42 233 82 379q29 108 75.5 164.5t112.5 76t180 19.5h490q27 0 37 -6t10 -21q0 -4 -15 -90l-18 -100q-8 -39 -20.5 -50t-59.5 -11h-424q-27 0 -39 -9t-18 -32q-20 -75 -45 -207h420q31 0 43 -6t12 -21q0 -29 -16 -100l-19 -84q-6 -26 -20.5 -36.5 t-46.5 -10.5h-426q-20 -105 -25 -146q-8 -52 -8 -86q0 -17 8 -23.5t29 -6.5h426q29 0 41 -7t12 -28q0 -18 -12 -94l-15 -87q-8 -37 -24 -50t-58 -13h-534q-115 0 -160 31.5t-45 115.5zM406.5 1521.5q0.5 11.5 15.5 26.5l233 219q27 27 62 27h125q33 0 49 -27l143 -215 q13 -20 13 -30q0 -16 -23 -31l-104 -68q-23 -14 -33 -14q-17 0 -33 23l-111 153h-10l-170 -153q-26 -23 -41 -23q-12 0 -24 12l-78 76q-14 13 -13.5 24.5z" />
<glyph unicode="&#xcb;" horiz-adv-x="1067" d="M45 147q0 137 70 539q42 233 82 379q29 108 75.5 164.5t112.5 76t180 19.5h490q27 0 37 -6t10 -21q0 -4 -15 -90l-18 -100q-8 -39 -20.5 -50t-59.5 -11h-424q-27 0 -39 -9t-18 -32q-20 -75 -45 -207h420q31 0 43 -6t12 -21q0 -29 -16 -100l-19 -84q-6 -26 -20.5 -36.5 t-46.5 -10.5h-426q-20 -105 -25 -146q-8 -52 -8 -86q0 -17 8 -23.5t29 -6.5h426q29 0 41 -7t12 -28q0 -18 -12 -94l-15 -87q-8 -37 -24 -50t-58 -13h-534q-115 0 -160 31.5t-45 115.5zM401 1577q0 19 7 47l2 8q16 67 51 100t104 33h15q51 0 79.5 -25t28.5 -69q0 -23 -6 -47 l-2 -8q-16 -67 -51.5 -100t-104.5 -33h-14q-51 0 -80 25t-29 69zM782 1577q0 23 6 47l3 8q16 67 51 100t104 33h15q51 0 79.5 -25t28.5 -69q0 -23 -6 -47l-2 -8q-16 -67 -51.5 -100t-104.5 -33h-14q-51 0 -80 25t-29 69z" />
<glyph unicode="&#xcc;" horiz-adv-x="616" d="M18 33q0 13 13 84l225 1155q6 34 20 43.5t60 9.5h199q37 0 50 -7.5t13 -25.5q0 -9 -2 -21t-6 -30.5t-6 -32.5l-224 -1155q-6 -34 -20 -43.5t-59 -9.5h-199q-37 0 -50.5 7.5t-13.5 25.5zM119 1667q0 15 16 39l94 141q19 29 43 29q20 0 47 -21l347 -249q18 -13 18 -31 q0 -15 -25 -51l-59 -80q-25 -35 -47 -35q-17 0 -41 12l-362 203q-31 17 -31 43z" />
<glyph unicode="&#xcd;" horiz-adv-x="616" d="M18 33q0 13 13 84l225 1155q6 34 20 43.5t60 9.5h199q37 0 50 -7.5t13 -25.5q0 -9 -2 -21t-6 -30.5t-6 -32.5l-224 -1155q-6 -34 -20 -43.5t-59 -9.5h-199q-37 0 -50.5 7.5t-13.5 25.5zM258 1597q0 19 37 37l399 201q20 10 35 10q26 0 39 -33l53 -137q6 -15 6 -26 q0 -29 -57 -50l-389 -151q-20 -8 -35 -8q-26 0 -39 33l-43 98q-6 15 -6 26z" />
<glyph unicode="&#xce;" horiz-adv-x="616" d="M18 33q0 13 13 84l225 1155q6 34 20 43.5t60 9.5h199q37 0 50 -7.5t13 -25.5q0 -9 -2 -21t-6 -30.5t-6 -32.5l-224 -1155q-6 -34 -20 -43.5t-59 -9.5h-199q-37 0 -50.5 7.5t-13.5 25.5zM142.5 1521.5q0.5 11.5 15.5 26.5l233 219q27 27 62 27h125q33 0 49 -27l143 -215 q12 -18 12 -30q0 -16 -22 -31l-105 -68q-23 -14 -32 -14q-17 0 -33 23l-111 153h-10l-170 -153q-26 -23 -41 -23q-13 0 -25 12l-77 76q-14 13 -13.5 24.5z" />
<glyph unicode="&#xcf;" horiz-adv-x="616" d="M18 33q0 13 13 84l225 1155q6 34 20 43.5t60 9.5h199q37 0 50 -7.5t13 -25.5q0 -9 -2 -21t-6 -30.5t-6 -32.5l-224 -1155q-6 -34 -20 -43.5t-59 -9.5h-199q-37 0 -50.5 7.5t-13.5 25.5zM154 1577q0 23 6 47l2 8q16 67 51 100t104 33h15q51 0 79.5 -25t28.5 -69 q0 -23 -6 -47l-2 -8q-16 -67 -51.5 -100t-104.5 -33h-14q-51 0 -79.5 25t-28.5 69zM535 1577q0 23 6 47l2 8q16 67 51 100t104 33h15q51 0 79.5 -25t28.5 -69q0 -23 -6 -47l-2 -8q-16 -67 -51.5 -100t-104.5 -33h-14q-51 0 -79.5 25t-28.5 69z" />
<glyph unicode="&#xd0;" horiz-adv-x="1349" d="M25 578q0 6 8 55l16 84q6 33 19 45t43 12h104l90 461q8 46 27.5 62.5t58.5 19.5q135 12 348 12h23q345 0 455 -141q57 -73 70.5 -179.5t-11.5 -279.5q-35 -250 -94 -381.5t-154 -208.5q-92 -75 -226.5 -107t-334.5 -32h-43q-210 0 -281 8q-61 6 -61 58q0 15 24 135 l66 348h-104q-23 0 -33 6t-10 23zM471 309q0 -21 27 -24q25 -2 77 -2h19q124 0 192 59q48 41 77.5 102t56.5 183q34 153 34 245q0 79 -34 121q-45 56 -170 56h-19q-29 0 -86 -5q-22 -2 -31 -8.5t-12 -25.5l-45 -236h141q23 0 33 -6t10 -23q0 -6 -8 -55l-16 -84 q-6 -33 -19 -45t-43 -12h-141l-25 -129q-18 -102 -18 -111z" />
<glyph unicode="&#xd1;" horiz-adv-x="1316" d="M12 37q0 2 13 82l221 1138q7 40 25.5 54t56.5 14h82q47 0 71 -12.5t39 -44.5l330 -678h4l131 665q7 41 25.5 55.5t58.5 14.5h174q33 0 47.5 -7.5t14.5 -27.5q0 -5 -17 -92l-219 -1130q-7 -39 -26.5 -53.5t-55.5 -14.5h-84q-44 0 -68 12t-42 45l-334 660h-4l-125 -647 q-7 -42 -24.5 -56t-59.5 -14h-176q-33 0 -45.5 8t-12.5 29zM463 1538q115 195 264 195q44 0 79.5 -15t54.5 -32.5t44.5 -32.5t50.5 -15q28 0 51 17.5t52 58.5q13 18 24.5 19t28.5 -11l76 -49q31 -19 10 -53q-115 -195 -264 -195q-43 0 -78.5 15t-54 32.5t-44 32.5t-52.5 15 q-28 0 -51 -17.5t-52 -58.5q-13 -18 -24.5 -19t-28.5 11l-76 49q-31 19 -10 53z" />
<glyph unicode="&#xd2;" horiz-adv-x="1296" d="M57 352q0 117 56 402q39 203 96.5 315.5t165.5 185.5q130 88 393 88h16q241 0 351 -96q104 -91 104 -256q0 -131 -53 -407q-41 -214 -92 -324.5t-148 -177.5q-144 -100 -420 -100h-22q-114 0 -205.5 26t-142.5 70q-53 45 -76 111t-23 163zM410 418q0 -68 26 -101 q40 -49 127 -49h25q85 0 143 49q40 34 65.5 106.5t51.5 201.5q41 212 41 284q0 69 -25 101q-38 47 -127 47h-24q-86 0 -144 -49q-39 -33 -65.5 -108.5t-50.5 -199.5q-43 -228 -43 -282zM467 1667q0 15 16 39l95 141q19 29 43 29q20 0 47 -21l346 -249q18 -13 18 -31 q0 -17 -24 -51l-60 -80q-25 -35 -47 -35q-17 0 -41 12l-362 203q-31 17 -31 43z" />
<glyph unicode="&#xd3;" horiz-adv-x="1296" d="M57 352q0 117 56 402q39 203 96.5 315.5t165.5 185.5q130 88 393 88h16q241 0 351 -96q104 -91 104 -256q0 -131 -53 -407q-41 -214 -92 -324.5t-148 -177.5q-144 -100 -420 -100h-22q-114 0 -205.5 26t-142.5 70q-53 45 -76 111t-23 163zM410 418q0 -68 26 -101 q40 -49 127 -49h25q85 0 143 49q40 34 65.5 106.5t51.5 201.5q41 212 41 284q0 69 -25 101q-38 47 -127 47h-24q-86 0 -144 -49q-39 -33 -65.5 -108.5t-50.5 -199.5q-43 -228 -43 -282zM553 1597q0 19 37 37l399 201q20 10 35 10q26 0 39 -33l53 -137q6 -15 6 -26 q0 -29 -57 -50l-389 -151q-20 -8 -35 -8q-26 0 -39 33l-43 98q-6 15 -6 26z" />
<glyph unicode="&#xd4;" horiz-adv-x="1296" d="M57 352q0 117 56 402q39 203 96.5 315.5t165.5 185.5q130 88 393 88h16q241 0 351 -96q104 -91 104 -256q0 -131 -53 -407q-41 -214 -92 -324.5t-148 -177.5q-144 -100 -420 -100h-22q-114 0 -205.5 26t-142.5 70q-53 45 -76 111t-23 163zM410 418q0 -68 26 -101 q40 -49 127 -49h25q85 0 143 49q40 34 65.5 106.5t51.5 201.5q41 212 41 284q0 69 -25 101q-38 47 -127 47h-24q-86 0 -144 -49q-39 -33 -65.5 -108.5t-50.5 -199.5q-43 -228 -43 -282zM475 1497q-25 25 2 51l234 219q27 27 61 27h125q33 0 49 -27l144 -215q12 -18 12 -30 q0 -16 -23 -31l-104 -68q-23 -14 -33 -14q-17 0 -33 23l-110 153h-11l-170 -153q-26 -23 -40 -23q-13 0 -25 12z" />
<glyph unicode="&#xd5;" horiz-adv-x="1296" d="M57 352q0 117 56 402q39 203 96.5 315.5t165.5 185.5q130 88 393 88h16q241 0 351 -96q104 -91 104 -256q0 -131 -53 -407q-41 -214 -92 -324.5t-148 -177.5q-144 -100 -420 -100h-22q-114 0 -205.5 26t-142.5 70q-53 45 -76 111t-23 163zM410 418q0 -68 26 -101 q40 -49 127 -49h25q85 0 143 49q40 34 65.5 106.5t51.5 201.5q41 212 41 284q0 69 -25 101q-38 47 -127 47h-24q-86 0 -144 -49q-39 -33 -65.5 -108.5t-50.5 -199.5q-43 -228 -43 -282zM446 1538q115 195 265 195q44 0 79.5 -15t54.5 -32.5t44.5 -32.5t50.5 -15 q28 0 50.5 17.5t51.5 58.5q13 18 25.5 19t28.5 -11l75 -49q31 -19 11 -53q-115 -195 -264 -195q-43 0 -78.5 15t-54.5 32.5t-44.5 32.5t-52.5 15q-28 0 -50.5 -17.5t-51.5 -58.5q-13 -18 -25.5 -19t-28.5 11l-75 49q-31 19 -11 53z" />
<glyph unicode="&#xd6;" horiz-adv-x="1296" d="M57 352q0 117 56 402q39 203 96.5 315.5t165.5 185.5q130 88 393 88h16q241 0 351 -96q104 -91 104 -256q0 -131 -53 -407q-41 -214 -92 -324.5t-148 -177.5q-144 -100 -420 -100h-22q-114 0 -205.5 26t-142.5 70q-53 45 -76 111t-23 163zM410 418q0 -68 26 -101 q40 -49 127 -49h25q85 0 143 49q40 34 65.5 106.5t51.5 201.5q41 212 41 284q0 69 -25 101q-38 47 -127 47h-24q-86 0 -144 -49q-39 -33 -65.5 -108.5t-50.5 -199.5q-43 -228 -43 -282zM485 1577q0 19 7 47l2 8q16 67 51 100t104 33h15q51 0 79.5 -25t28.5 -69q0 -23 -6 -47 l-2 -8q-16 -67 -51.5 -100t-104.5 -33h-14q-51 0 -80 25t-29 69zM866 1577q0 23 6 47l2 8q16 67 51.5 100t104.5 33h14q51 0 80 -25t29 -69q0 -23 -6 -47l-2 -8q-16 -67 -51.5 -100t-104.5 -33h-14q-51 0 -80 25t-29 69z" />
<glyph unicode="&#xd7;" d="M94 285q5 23 41 53l215 176l-137 174q-27 29 -22.5 53.5t42.5 55.5l121 100q37 31 59.5 31t47.5 -29l139 -176l219 180q40 30 62.5 28t44.5 -30l80 -100q25 -33 20 -56t-41 -53l-217 -178l143 -176q25 -30 21.5 -53.5t-41.5 -55.5l-121 -100q-36 -30 -58.5 -30.5 t-47.5 28.5l-146 178l-217 -178q-34 -29 -57.5 -29t-48.5 31l-80 100q-26 33 -21 56z" />
<glyph unicode="&#xd8;" horiz-adv-x="1296" d="M9 -70.5q-3 14.5 20 45.5l98 131q-70 84 -70 246q0 117 56 402q39 203 96.5 315.5t165.5 185.5q130 88 393 88h16q138 0 236 -34l119 161q21 27 33.5 30.5t46.5 -17.5l43 -31q35 -26 38 -40.5t-20 -45.5l-113 -154q72 -87 72 -221q0 -131 -53 -407q-41 -214 -92 -324.5 t-148 -177.5q-144 -100 -420 -100h-16q-117 0 -234 32l-106 -143q-14 -19 -23 -25.5t-22.5 -4t-34.5 17.5l-43 30q-35 26 -38 40.5zM416 498l405 544q-35 15 -84 15h-24q-86 0 -144 -49q-39 -33 -65.5 -108.5t-50.5 -199.5q-20 -103 -37 -202zM477 285q33 -17 86 -17h25 q85 0 143 49q40 34 65.5 106.5t51.5 201.5q27 145 35 206z" />
<glyph unicode="&#xd9;" horiz-adv-x="1294" d="M57 305q0 72 17 158l155 799q7 42 22 52.5t62 10.5h203q30 0 42.5 -10t12.5 -33q0 -14 -6 -51l-147 -758q-10 -58 -10 -90q0 -51 20 -74q33 -41 133 -41h10q101 0 150 41q48 40 72 164l153 789q9 42 23.5 52.5t60.5 10.5h201q30 0 42.5 -10t12.5 -33q0 -14 -6 -51 l-150 -768q-29 -145 -66.5 -226.5t-115.5 -142.5q-145 -112 -420 -112h-24q-272 0 -375 112q-72 84 -72 211zM457 1667q0 15 16 39l94 141q19 29 43 29q20 0 47 -21l347 -249q18 -13 18 -31q0 -15 -25 -51l-59 -80q-25 -35 -47 -35q-17 0 -41 12l-363 203q-30 17 -30 43z " />
<glyph unicode="&#xda;" horiz-adv-x="1294" d="M57 305q0 72 17 158l155 799q7 42 22 52.5t62 10.5h203q30 0 42.5 -10t12.5 -33q0 -14 -6 -51l-147 -758q-10 -58 -10 -90q0 -51 20 -74q33 -41 133 -41h10q101 0 150 41q48 40 72 164l153 789q9 42 23.5 52.5t60.5 10.5h201q30 0 42.5 -10t12.5 -33q0 -14 -6 -51 l-150 -768q-29 -145 -66.5 -226.5t-115.5 -142.5q-145 -112 -420 -112h-24q-272 0 -375 112q-72 84 -72 211zM571 1597q0 19 37 37l400 201q20 10 34 10q26 0 39 -33l54 -137q6 -15 6 -26q0 -28 -58 -50l-389 -151q-20 -8 -35 -8q-25 0 -38 33l-43 98q-7 18 -7 26z" />
<glyph unicode="&#xdb;" horiz-adv-x="1294" d="M57 305q0 72 17 158l155 799q7 42 22 52.5t62 10.5h203q30 0 42.5 -10t12.5 -33q0 -14 -6 -51l-147 -758q-10 -58 -10 -90q0 -51 20 -74q33 -41 133 -41h10q101 0 150 41q48 40 72 164l153 789q9 42 23.5 52.5t60.5 10.5h201q30 0 42.5 -10t12.5 -33q0 -14 -6 -51 l-150 -768q-29 -145 -66.5 -226.5t-115.5 -142.5q-145 -112 -420 -112h-24q-272 0 -375 112q-72 84 -72 211zM480.5 1521.5q0.5 11.5 15.5 26.5l233 219q27 27 62 27h124q34 0 50 -27l143 -215q12 -18 12 -30q0 -16 -22 -31l-105 -68q-23 -14 -32 -14q-17 0 -33 23l-111 153 h-10l-170 -153q-26 -23 -41 -23q-13 0 -25 12l-77 76q-14 13 -13.5 24.5z" />
<glyph unicode="&#xdc;" horiz-adv-x="1294" d="M57 305q0 72 17 158l155 799q7 42 22 52.5t62 10.5h203q30 0 42.5 -10t12.5 -33q0 -14 -6 -51l-147 -758q-10 -58 -10 -90q0 -51 20 -74q33 -41 133 -41h10q101 0 150 41q48 40 72 164l153 789q9 42 23.5 52.5t60.5 10.5h201q30 0 42.5 -10t12.5 -33q0 -14 -6 -51 l-150 -768q-29 -145 -66.5 -226.5t-115.5 -142.5q-145 -112 -420 -112h-24q-272 0 -375 112q-72 84 -72 211zM494 1577q0 23 6 47l2 8q16 67 51 100t104 33h15q51 0 79.5 -25t28.5 -69q0 -23 -6 -47l-2 -8q-16 -67 -51.5 -100t-104.5 -33h-14q-51 0 -79.5 25t-28.5 69z M874 1577q0 19 7 47l2 8q16 67 51 100t104 33h15q51 0 79.5 -25t28.5 -69q0 -23 -6 -47l-2 -8q-16 -67 -51.5 -100t-104.5 -33h-14q-51 0 -80 25t-29 69z" />
<glyph unicode="&#xdd;" horiz-adv-x="1085" d="M137 1257q-6 68 49 68h203q29 0 38 -0.5t21.5 -5t15.5 -14.5t5 -29q16 -277 68 -582h10q111 195 289 582q14 36 28.5 42.5t63.5 6.5h213q21 0 31 -6t10 -23q0 -6 -1 -12t-3.5 -13t-4.5 -13t-6.5 -15.5t-7 -15t-9 -18.5l-9.5 -19q-95 -198 -227.5 -418t-256.5 -389 l-61 -320q-8 -37 -24 -50t-54 -13h-211q-31 0 -44 8t-13 27q0 20 14 86l53 270q-61 180 -112 419.5t-68 446.5zM475 1597q0 19 37 37l399 201q20 10 35 10q26 0 39 -33l53 -137q6 -15 6 -26q0 -29 -57 -50l-389 -151q-20 -8 -35 -8q-26 0 -39 33l-43 98q-6 15 -6 26z" />
<glyph unicode="&#xde;" horiz-adv-x="1179" d="M12 33q0 5 2.5 17.5t7 34.5t7.5 38l223 1155q7 42 22.5 53.5t63.5 11.5h190q40 0 54 -5.5t14 -26.5q0 -2 -39 -197q47 8 119 8h20q230 0 331 -73.5t101 -235.5q0 -169 -57 -311t-158 -203q-78 -47 -180 -66.5t-246 -19.5h-102l-29 -147q-9 -43 -24 -54.5t-62 -11.5h-190 q-39 0 -53.5 6t-14.5 27zM442 494h107q111 0 160 43q36 31 53.5 92.5t17.5 118.5q0 56 -31.5 77t-105.5 21h-18q-63 0 -101 -6q-17 -3 -20 -25z" />
<glyph unicode="&#xdf;" d="M-66 -109l201 1020q26 133 60.5 214t87.5 137q134 143 407 143h8q402 0 402 -313q0 -229 -178 -344v-9q145 -55 145 -250q0 -234 -152 -383q-127 -124 -331 -124h-4q-86 0 -168 16q-27 6 -35.5 17.5t-3.5 35.5l28 150q6 27 20 33.5t46 3.5q45 -5 70 -5h2q91 0 141 62 q55 72 55 184q0 71 -39 96q-34 23 -127 23h-39q-25 0 -32.5 9t-3.5 34l30 156q6 26 16 34.5t35 8.5h15q88 0 133 39q63 53 63 155q0 109 -127 109h-4q-85 0 -135 -62q-39 -51 -61 -163l-199 -1027q-8 -39 -23 -51t-59 -12h-188q-40 0 -51.5 13t-4.5 50z" />
<glyph unicode="&#xe0;" horiz-adv-x="1030" d="M-20 231q0 80 21.5 157.5t68.5 127.5q101 107 352 107h12q89 0 154 -9q12 46 12 70v4q0 78 -141 78h-6q-76 0 -174 -23q-70 -14 -78 -14q-28 0 -31 33l-10 104q-4 54 -4 66q0 15 6 23t24 14q67 21 171.5 37t197.5 16h6q196 0 291 -70q78 -59 78 -188q0 -83 -37 -268 l-88 -439q-6 -31 -23.5 -44t-56.5 -13h-107q-32 0 -44 8t-13 33l-2 37h-4q-73 -96 -283 -96h-6q-139 0 -212.5 65.5t-73.5 183.5zM258 1444q0 17 23 43l114 125q22 22 43 22q18 0 47 -26l308 -297q14 -14 14 -29q0 -18 -33 -51l-69 -70q-28 -28 -48 -28q-18 0 -43 18 l-329 252q-27 21 -27 41zM274 293q0 -78 101 -78h10q70 0 109 31q31 24 47 100l10 57q-51 7 -113 7h-22q-142 0 -142 -117z" />
<glyph unicode="&#xe1;" horiz-adv-x="1030" d="M-20 231q0 80 21.5 157.5t68.5 127.5q101 107 352 107h12q89 0 154 -9q12 46 12 70v4q0 78 -141 78h-6q-76 0 -174 -23q-70 -14 -78 -14q-28 0 -31 33l-10 104q-4 54 -4 66q0 15 6 23t24 14q67 21 171.5 37t197.5 16h6q196 0 291 -70q78 -59 78 -188q0 -83 -37 -268 l-88 -439q-6 -31 -23.5 -44t-56.5 -13h-107q-32 0 -44 8t-13 33l-2 37h-4q-73 -96 -283 -96h-6q-139 0 -212.5 65.5t-73.5 183.5zM274 293q0 -78 101 -78h10q70 0 109 31q31 24 47 100l10 57q-51 7 -113 7h-22q-142 0 -142 -117zM377 1260q0 16 31 38l360 265q25 18 43 18 q20 0 35 -27l74 -127q10 -17 10 -30q0 -27 -47 -54l-359 -215q-22 -14 -39 -14q-18 0 -36 27l-60 90q-12 18 -12 29z" />
<glyph unicode="&#xe2;" horiz-adv-x="1030" d="M-20 231q0 80 21.5 157.5t68.5 127.5q101 107 352 107h12q89 0 154 -9q12 46 12 70v4q0 78 -141 78h-6q-76 0 -174 -23q-70 -14 -78 -14q-28 0 -31 33l-10 104q-4 54 -4 66q0 15 6 23t24 14q67 21 171.5 37t197.5 16h6q196 0 291 -70q78 -59 78 -188q0 -83 -37 -268 l-88 -439q-6 -31 -23.5 -44t-56.5 -13h-107q-32 0 -44 8t-13 33l-2 37h-4q-73 -96 -283 -96h-6q-139 0 -212.5 65.5t-73.5 183.5zM274 293q0 -78 101 -78h10q70 0 109 31q31 24 47 100l10 57q-51 7 -113 7h-22q-142 0 -142 -117zM295 1223q-25 25 2 51l233 219q27 27 62 27 h125q33 0 49 -27l143 -215q13 -20 13 -31q0 -15 -23 -30l-104 -68q-23 -14 -33 -14q-17 0 -33 22l-111 154h-10l-170 -154q-24 -22 -41 -22q-12 0 -24 12z" />
<glyph unicode="&#xe3;" horiz-adv-x="1030" d="M-20 231q0 80 21.5 157.5t68.5 127.5q101 107 352 107h12q89 0 154 -9q12 46 12 70v4q0 78 -141 78h-6q-76 0 -174 -23q-70 -14 -78 -14q-28 0 -31 33l-10 104q-4 54 -4 66q0 15 6 23t24 14q67 21 171.5 37t197.5 16h6q196 0 291 -70q78 -59 78 -188q0 -83 -37 -268 l-88 -439q-6 -31 -23.5 -44t-56.5 -13h-107q-32 0 -44 8t-13 33l-2 37h-4q-73 -96 -283 -96h-6q-139 0 -212.5 65.5t-73.5 183.5zM260 1251q115 195 264 195q44 0 79.5 -14.5t55 -32.5t45 -32.5t50.5 -14.5q28 0 50.5 17t51.5 58q13 18 24.5 19t28.5 -10l76 -50 q31 -19 10 -53q-115 -194 -264 -194q-43 0 -78.5 14.5t-54 32.5t-44 32.5t-52.5 14.5q-28 0 -51 -17.5t-52 -58.5q-13 -18 -24.5 -19t-28.5 11l-76 49q-31 19 -10 53zM274 293q0 -78 101 -78h10q70 0 109 31q31 24 47 100l10 57q-51 7 -113 7h-22q-142 0 -142 -117z" />
<glyph unicode="&#xe4;" horiz-adv-x="1030" d="M-20 231q0 80 21.5 157.5t68.5 127.5q101 107 352 107h12q89 0 154 -9q12 46 12 70v4q0 78 -141 78h-6q-76 0 -174 -23q-70 -14 -78 -14q-28 0 -31 33l-10 104q-4 54 -4 66q0 15 6 23t24 14q67 21 171.5 37t197.5 16h6q196 0 291 -70q78 -59 78 -188q0 -83 -37 -268 l-88 -439q-6 -31 -23.5 -44t-56.5 -13h-107q-32 0 -44 8t-13 33l-2 37h-4q-73 -96 -283 -96h-6q-139 0 -212.5 65.5t-73.5 183.5zM274 293q0 -78 101 -78h10q70 0 109 31q31 24 47 100l10 57q-51 7 -113 7h-22q-142 0 -142 -117zM309 1255q0 24 6 48l2 8q16 67 51.5 100 t104.5 33h14q51 0 80 -25t29 -69q0 -23 -6 -47l-2 -9q-16 -67 -51.5 -100t-104.5 -33h-14q-51 0 -80 25t-29 69zM690 1255q0 24 6 48l2 8q16 67 51.5 100t104.5 33h14q51 0 80 -25t29 -69q0 -23 -6 -47l-2 -9q-16 -67 -51.5 -100t-104.5 -33h-14q-51 0 -80 25t-29 69z" />
<glyph unicode="&#xe5;" horiz-adv-x="1030" d="M-20 231q0 80 21.5 157.5t68.5 127.5q101 107 352 107h12q89 0 154 -9q12 46 12 70v4q0 78 -141 78h-6q-76 0 -174 -23q-70 -14 -78 -14q-28 0 -31 33l-10 104q-4 54 -4 66q0 15 6 23t24 14q67 21 171.5 37t197.5 16h6q196 0 291 -70q78 -59 78 -188q0 -83 -37 -268 l-88 -439q-6 -31 -23.5 -44t-56.5 -13h-107q-32 0 -44 8t-13 33l-2 37h-4q-73 -96 -283 -96h-6q-139 0 -212.5 65.5t-73.5 183.5zM274 293q0 -78 101 -78h10q70 0 109 31q31 24 47 100l10 57q-51 7 -113 7h-22q-142 0 -142 -117zM418 1296q0 105 70.5 175.5t173.5 70.5 q81 0 128.5 -47t47.5 -125q0 -105 -70.5 -175.5t-173.5 -70.5q-78 0 -127 47t-49 125zM567 1319q0 -22 13.5 -33.5t35.5 -11.5q29 0 50.5 20.5t21.5 53.5q0 22 -13.5 33.5t-35.5 11.5q-29 0 -50.5 -20.5t-21.5 -53.5z" />
<glyph unicode="&#xe6;" horiz-adv-x="1560" d="M-20 225q0 92 26 178q33 109 132.5 164.5t281.5 55.5h14q89 0 154 -9q12 46 12 70v4q0 78 -141 78h-6q-76 0 -174 -23q-70 -14 -78 -14q-28 0 -31 33l-10 104q-4 54 -4 66q0 15 6 23t24 14q67 21 171.5 37t197.5 16h10q94 0 155.5 -18.5t100.5 -67.5h8q123 86 279 86h6 q198 0 285 -84q74 -71 74 -203q0 -57 -31 -233l-10 -56q-6 -32 -21.5 -44.5t-48.5 -12.5h-485q-9 -43 -9 -72q0 -43 36 -61t134 -18h13q95 0 217 28q30 6 39 6q27 0 30 -34l9 -95q4 -50 4 -61q0 -33 -64 -53q-151 -47 -328 -47h-28q-116 0 -198 31.5t-122 80.5h-4 q-118 -112 -334 -112h-14q-133 0 -205.5 64.5t-72.5 178.5zM274 283q0 -31 23.5 -49.5t69.5 -18.5h18q70 0 109 31q34 27 47 100l10 57q-51 7 -113 7h-16q-67 0 -96 -14.5t-43 -53.5q-9 -24 -9 -59zM915 602h224q21 0 26 21l4 18q9 43 9 64q0 88 -105 88h-4q-60 0 -96 -31 q-35 -32 -51 -125z" />
<glyph unicode="&#xe7;" horiz-adv-x="925" d="M-4 264q0 80 20 191l29 155q24 123 65 201t111 127q120 84 318 84h10q75 0 162.5 -20t148.5 -50q31 -15 31 -39q0 -15 -23 -69l-43 -96q-17 -39 -41 -39q-18 0 -36 10q-82 45 -175 45h-10q-80 0 -129 -43q-55 -49 -76 -172l-16 -92q-14 -79 -14 -115q0 -55 32.5 -79.5 t110.5 -24.5h10q93 0 185 30q16 6 32 6q26 0 31 -34l10 -103q4 -46 4 -61q0 -19 -12 -29.5t-43 -19.5q-113 -37 -270 -43q0 -1 -1 -4t-1 -5l-37 -84q35 7 57 7q68 0 110.5 -36t43.5 -110q0 -108 -79 -179t-204 -71q-127 0 -203 31q-18 7 -22.5 19t2.5 34l22 72q7 22 19.5 27 t32.5 -2q69 -21 131 -21q76 0 76 55q0 33 -54 33h-6q-23 0 -51 -5t-37 -5q-11 0 -22 14l-19 29q-8 13 -8 27q0 12 14 43l64 131q0 4 2 6q-140 17 -199 92q-53 64 -53 182z" />
<glyph unicode="&#xe8;" horiz-adv-x="1009" d="M-4 287q0 94 22 215l15 71q31 153 76 238.5t110 130.5q114 80 338 80h6q198 0 285 -84q74 -71 74 -203q0 -57 -31 -233l-10 -56q-6 -33 -21.5 -45t-48.5 -12h-485q-9 -43 -9 -72q0 -42 36.5 -60.5t133.5 -18.5h13q95 0 217 28q30 6 39 6q27 0 30 -34l9 -95q4 -50 4 -61 q0 -20 -14.5 -31t-49.5 -22q-151 -47 -327 -47h-29q-191 0 -287 70.5t-96 234.5zM213 1444q0 17 23 43l114 125q22 22 43 22q18 0 47 -26l308 -297q14 -14 14 -29q0 -18 -33 -51l-70 -70q-28 -28 -47 -28q-18 0 -43 18l-329 252q-27 21 -27 41zM365 602h223q21 0 26 21l4 18 q9 44 9 64q0 88 -105 88h-4q-60 0 -96 -31q-35 -32 -51 -125z" />
<glyph unicode="&#xe9;" horiz-adv-x="1009" d="M-4 287q0 94 22 215l15 71q31 153 76 238.5t110 130.5q114 80 338 80h6q198 0 285 -84q74 -71 74 -203q0 -57 -31 -233l-10 -56q-6 -33 -21.5 -45t-48.5 -12h-485q-9 -43 -9 -72q0 -42 36.5 -60.5t133.5 -18.5h13q95 0 217 28q30 6 39 6q27 0 30 -34l9 -95q4 -50 4 -61 q0 -20 -14.5 -31t-49.5 -22q-151 -47 -327 -47h-29q-191 0 -287 70.5t-96 234.5zM348 1260q0 16 31 38l360 265q25 18 43 18q20 0 35 -27l74 -127q10 -17 10 -30q0 -27 -47 -54l-358 -215q-22 -14 -39 -14q-19 0 -37 27l-60 90q-12 18 -12 29zM365 602h223q21 0 26 21l4 18 q9 44 9 64q0 88 -105 88h-4q-60 0 -96 -31q-35 -32 -51 -125z" />
<glyph unicode="&#xea;" horiz-adv-x="1009" d="M-4 287q0 94 22 215l15 71q31 153 76 238.5t110 130.5q114 80 338 80h6q198 0 285 -84q74 -71 74 -203q0 -57 -31 -233l-10 -56q-6 -33 -21.5 -45t-48.5 -12h-485q-9 -43 -9 -72q0 -42 36.5 -60.5t133.5 -18.5h13q95 0 217 28q30 6 39 6q27 0 30 -34l9 -95q4 -50 4 -61 q0 -20 -14.5 -31t-49.5 -22q-151 -47 -327 -47h-29q-191 0 -287 70.5t-96 234.5zM252.5 1247.5q0.5 11.5 15.5 26.5l234 219q27 27 61 27h125q33 0 49 -27l144 -215q12 -18 12 -31q0 -15 -23 -30l-104 -68q-23 -14 -33 -14q-17 0 -33 22l-110 154h-10l-170 -154 q-24 -22 -41 -22q-13 0 -25 12l-78 76q-14 13 -13.5 24.5zM365 602h223q21 0 26 21l4 18q9 44 9 64q0 88 -105 88h-4q-60 0 -96 -31q-35 -32 -51 -125z" />
<glyph unicode="&#xeb;" horiz-adv-x="1009" d="M-4 287q0 94 22 215l15 71q31 153 76 238.5t110 130.5q114 80 338 80h6q198 0 285 -84q74 -71 74 -203q0 -57 -31 -233l-10 -56q-6 -33 -21.5 -45t-48.5 -12h-485q-9 -43 -9 -72q0 -42 36.5 -60.5t133.5 -18.5h13q95 0 217 28q30 6 39 6q27 0 30 -34l9 -95q4 -50 4 -61 q0 -20 -14.5 -31t-49.5 -22q-151 -47 -327 -47h-29q-191 0 -287 70.5t-96 234.5zM264 1255q0 24 6 48l2 8q16 67 51.5 100t104.5 33h14q51 0 80 -25t29 -69q0 -23 -6 -47l-2 -9q-16 -67 -51.5 -100t-104.5 -33h-14q-51 0 -80 25t-29 69zM365 602h223q21 0 26 21l4 18 q9 44 9 64q0 88 -105 88h-4q-60 0 -96 -31q-35 -32 -51 -125zM645 1255q0 24 6 48l2 8q16 67 51.5 100t104.5 33h14q51 0 80 -25t29 -69q0 -23 -6 -47l-2 -9q-16 -67 -51.5 -100t-104.5 -33h-14q-51 0 -80 25t-29 69z" />
<glyph unicode="&#xec;" horiz-adv-x="544" d="M-23 35q0 9 15 82l160 827q6 31 23.5 45.5t55.5 14.5h189q31 0 44 -9t13 -28q0 -18 -18 -111l-156 -797q-5 -31 -22.5 -45t-55.5 -14h-188q-60 0 -60 35zM27 1444q0 18 22 43l115 125q22 22 43 22q18 0 47 -26l307 -297q14 -14 14 -29q0 -19 -32 -51l-70 -70 q-28 -28 -47 -28q-18 0 -43 18l-330 252q-26 20 -26 41z" />
<glyph unicode="&#xed;" horiz-adv-x="544" d="M-23 35q0 9 15 82l160 827q6 31 23.5 45.5t55.5 14.5h189q31 0 44 -9t13 -28q0 -18 -18 -111l-156 -797q-5 -31 -22.5 -45t-55.5 -14h-188q-60 0 -60 35zM145 1260q0 16 31 38l361 265q25 18 43 18q19 0 34 -27l74 -127q10 -17 10 -30q0 -27 -47 -54l-358 -215 q-22 -14 -39 -14q-19 0 -37 27l-59 90q-13 19 -13 29z" />
<glyph unicode="&#xee;" horiz-adv-x="544" d="M-23 35q0 9 15 82l160 827q6 31 23.5 45.5t55.5 14.5h189q31 0 44 -9t13 -28q0 -18 -18 -111l-156 -797q-5 -31 -22.5 -45t-55.5 -14h-188q-60 0 -60 35zM56.5 1247.5q0.5 11.5 15.5 26.5l233 219q27 27 62 27h125q33 0 49 -27l143 -215q12 -18 12 -31q0 -15 -22 -30 l-105 -68q-23 -14 -32 -14q-17 0 -33 22l-111 154h-10l-170 -154q-24 -22 -41 -22q-13 0 -25 12l-77 76q-14 13 -13.5 24.5z" />
<glyph unicode="&#xef;" horiz-adv-x="544" d="M-23 35q0 9 15 82l160 827q6 31 23.5 45.5t55.5 14.5h189q31 0 44 -9t13 -28q0 -18 -18 -111l-156 -797q-5 -31 -22.5 -45t-55.5 -14h-188q-60 0 -60 35zM55 1255q0 24 6 48l2 8q16 67 51.5 100t104.5 33h14q51 0 80 -25t29 -69q0 -23 -6 -47l-2 -9q-16 -67 -51.5 -100 t-104.5 -33h-14q-51 0 -80 25t-29 69zM436 1255q0 24 6 48l2 8q16 67 51.5 100t104.5 33h14q51 0 80 -25t29 -69q0 -23 -6 -47l-2 -9q-16 -67 -51.5 -100t-104.5 -33h-14q-51 0 -80 25t-29 69z" />
<glyph unicode="&#xf0;" horiz-adv-x="1050" d="M4 301q0 67 19 174l14 76q38 201 133 299q110 113 324 113h2q118 0 188 -39h4q-3 128 -94 206l-74 -81q-20 -22 -31.5 -23t-33.5 16l-52 43q-21 17 -21 29t19 33l66 74l-86 47q-29 15 -29 32q0 12 15 33l75 115q16 22 31 22q12 0 49 -16q49 -21 107 -51l82 90 q20 22 31.5 22.5t33.5 -16.5l51 -43q21 -17 21 -28.5t-19 -32.5l-67 -76q207 -143 207 -440q0 -127 -31 -297l-31 -164q-24 -128 -59.5 -210t-91.5 -130q-59 -51 -147.5 -73.5t-221.5 -22.5h-20q-184 0 -273.5 82.5t-89.5 236.5zM317 344q0 -55 25.5 -80.5t81.5 -25.5h12 q65 0 98.5 33t47.5 104l36 188q7 40 7 58q0 84 -105 84h-6q-75 0 -111.5 -38t-54.5 -128l-18 -93q-13 -76 -13 -102z" />
<glyph unicode="&#xf1;" horiz-adv-x="1075" d="M-33 37q0 3 15 86l159 823q6 31 23 44.5t51 13.5h107q32 0 44 -7t15 -30l6 -43h6q110 98 312 98h4q272 0 272 -213q0 -81 -23 -193l-110 -557q-7 -32 -22 -45.5t-54 -13.5h-186q-33 0 -47.5 9t-14.5 30q0 18 13 78l98 508q6 34 6 57q0 78 -98 78q-53 0 -90 -27 q-36 -28 -50 -108l-110 -566q-7 -32 -22 -45.5t-54 -13.5h-190q-60 0 -60 37zM274 1251q115 195 265 195q44 0 79.5 -14.5t54.5 -32.5t44.5 -32.5t50.5 -14.5q28 0 50.5 17t51.5 58q13 18 25 19t29 -10l75 -50q31 -19 11 -53q-115 -194 -265 -194q-43 0 -78.5 14.5t-54 32.5 t-44 32.5t-52.5 14.5q-28 0 -50.5 -17.5t-51.5 -58.5q-13 -18 -25.5 -19t-28.5 11l-75 49q-31 19 -11 53z" />
<glyph unicode="&#xf2;" horiz-adv-x="1064" d="M-4 272q0 51 17.5 161t41.5 210q27 114 70.5 185t120.5 120q118 74 321 74h37q189 0 285 -80q86 -71 86 -211q0 -130 -60 -364q-32 -127 -73.5 -197.5t-106.5 -112.5q-119 -75 -327 -75h-41q-190 0 -285 79q-86 71 -86 211zM305 1444q0 17 23 43l114 125q22 22 43 22 q18 0 47 -26l308 -297q14 -14 14 -29q0 -18 -33 -51l-69 -70q-28 -28 -47 -28q-18 0 -43 18l-330 252q-27 21 -27 41zM324 322q0 -84 96 -84h4q64 0 100 26q28 22 45.5 61t34.5 117q39 167 39 240q0 84 -96 84h-4q-63 0 -101 -27q-27 -21 -44 -59.5t-36 -118.5 q-38 -163 -38 -239z" />
<glyph unicode="&#xf3;" horiz-adv-x="1064" d="M-4 272q0 51 17.5 161t41.5 210q27 114 70.5 185t120.5 120q118 74 321 74h37q189 0 285 -80q86 -71 86 -211q0 -130 -60 -364q-32 -127 -73.5 -197.5t-106.5 -112.5q-119 -75 -327 -75h-41q-190 0 -285 79q-86 71 -86 211zM324 322q0 -84 96 -84h4q64 0 100 26 q28 22 45.5 61t34.5 117q39 167 39 240q0 84 -96 84h-4q-63 0 -101 -27q-27 -21 -44 -59.5t-36 -118.5q-38 -163 -38 -239zM412 1260q0 17 30 38l361 265q25 18 43 18q20 0 35 -27l73 -127q11 -18 11 -30q0 -27 -47 -54l-359 -215q-22 -14 -39 -14q-19 0 -37 27l-59 90 q-12 18 -12 29z" />
<glyph unicode="&#xf4;" horiz-adv-x="1064" d="M-4 272q0 51 17.5 161t41.5 210q27 114 70.5 185t120.5 120q118 74 321 74h37q189 0 285 -80q86 -71 86 -211q0 -130 -60 -364q-32 -127 -73.5 -197.5t-106.5 -112.5q-119 -75 -327 -75h-41q-190 0 -285 79q-86 71 -86 211zM318.5 1247.5q0.5 11.5 15.5 26.5l233 219 q27 27 62 27h125q33 0 49 -27l143 -215q12 -18 12 -31q0 -15 -22 -30l-105 -68q-23 -14 -32 -14q-17 0 -33 22l-111 154h-10l-170 -154q-24 -22 -41 -22q-12 0 -24 12l-78 76q-14 13 -13.5 24.5zM324 322q0 -84 96 -84h4q64 0 100 26q28 22 45.5 61t34.5 117q39 167 39 240 q0 84 -96 84h-4q-63 0 -101 -27q-27 -21 -44 -59.5t-36 -118.5q-38 -163 -38 -239z" />
<glyph unicode="&#xf5;" horiz-adv-x="1064" d="M-4 272q0 51 17.5 161t41.5 210q27 114 70.5 185t120.5 120q118 74 321 74h37q189 0 285 -80q86 -71 86 -211q0 -130 -60 -364q-32 -127 -73.5 -197.5t-106.5 -112.5q-119 -75 -327 -75h-41q-190 0 -285 79q-86 71 -86 211zM285 1251q115 195 264 195q44 0 79.5 -14.5 t54.5 -32.5t44.5 -32.5t50.5 -14.5q29 0 52 17t51 58q13 18 24.5 19t28.5 -10l76 -50q31 -19 10 -53q-115 -194 -264 -194q-43 0 -78.5 14.5t-54.5 32.5t-44.5 32.5t-52.5 14.5q-28 0 -50.5 -17.5t-51.5 -58.5q-13 -18 -24.5 -19t-28.5 11l-76 49q-31 19 -10 53zM324 322 q0 -84 96 -84h4q64 0 100 26q28 22 45.5 61t34.5 117q39 167 39 240q0 84 -96 84h-4q-63 0 -101 -27q-27 -21 -44 -59.5t-36 -118.5q-38 -163 -38 -239z" />
<glyph unicode="&#xf6;" horiz-adv-x="1064" d="M-4 272q0 51 17.5 161t41.5 210q27 114 70.5 185t120.5 120q118 74 321 74h37q189 0 285 -80q86 -71 86 -211q0 -130 -60 -364q-32 -127 -73.5 -197.5t-106.5 -112.5q-119 -75 -327 -75h-41q-190 0 -285 79q-86 71 -86 211zM303 1255q0 24 6 48l2 8q16 67 51.5 100 t104.5 33h14q51 0 80 -25t29 -69q0 -23 -6 -47l-2 -9q-16 -67 -51.5 -100t-104.5 -33h-14q-51 0 -80 25t-29 69zM324 322q0 -84 96 -84h4q64 0 100 26q28 22 45.5 61t34.5 117q39 167 39 240q0 84 -96 84h-4q-63 0 -101 -27q-27 -21 -44 -59.5t-36 -118.5q-38 -163 -38 -239 zM684 1255q0 24 6 48l2 8q16 67 51.5 100t104.5 33h14q51 0 80 -25t29 -69q0 -23 -6 -47l-2 -9q-16 -67 -51.5 -100t-104.5 -33h-14q-51 0 -80 25t-29 69z" />
<glyph unicode="&#xf7;" d="M70 461l24 127q9 50 25 66t57 16h825q40 0 51 -17.5t3 -56.5l-25 -127q-9 -50 -25 -66t-57 -16h-825q-39 0 -50 17.5t-3 56.5zM313 129l2 14q33 160 187 160h24q75 0 108 -36.5t15 -123.5l-2 -14q-17 -81 -66 -122.5t-120 -41.5h-25q-89 0 -115 38.5t-8 125.5zM465 915 l4 15q30 160 186 160h25q74 0 106.5 -36.5t16.5 -123.5l-4 -15q-15 -81 -64 -122t-121 -41h-24q-89 0 -115 38t-10 125z" />
<glyph unicode="&#xf8;" horiz-adv-x="1064" d="M-51.5 -49.5q-0.5 11.5 16.5 33.5l86 106q-55 66 -55 182q0 51 17.5 161t41.5 210q27 114 70.5 185t120.5 120q118 74 321 74h37q90 0 178 -25l99 121q14 20 26 23t33 -11l49 -38q22 -17 22.5 -28.5t-16.5 -33.5l-86 -106q66 -72 66 -193q0 -130 -60 -364 q-32 -127 -73.5 -197.5t-106.5 -112.5q-119 -75 -327 -75h-41q-102 0 -195 28l-92 -114q-14 -20 -26.5 -23.5t-33.5 10.5l-49 39q-22 17 -22.5 28.5zM338 444l254 316q-18 6 -45 6h-4q-63 0 -101 -27q-27 -21 -44 -59.5t-36 -118.5zM362 246q19 -8 58 -8h4q64 0 100 26 q28 22 45.5 61t34.5 117q20 96 27 138z" />
<glyph unicode="&#xf9;" horiz-adv-x="1052" d="M2 229q0 49 21 156l108 559q6 32 23 46t57 14h186q62 0 62 -35q0 -14 -21 -117l-94 -485q-6 -30 -6 -56q0 -65 90 -65h8q47 0 84 26q31 24 47 105l111 567q6 32 23 46t57 14h186q62 0 62 -39q0 -9 -13 -76l-106 -545q-20 -104 -54.5 -170.5t-89.5 -105.5 q-63 -46 -140.5 -66t-201.5 -20h-22q-181 0 -279 61.5t-98 185.5zM285 1444q0 18 22 43l115 125q22 22 43 22q18 0 47 -26l307 -297q15 -15 15 -29q0 -18 -33 -51l-70 -70q-28 -28 -47 -28q-18 0 -43 18l-330 252q-26 20 -26 41z" />
<glyph unicode="&#xfa;" horiz-adv-x="1052" d="M2 229q0 49 21 156l108 559q6 32 23 46t57 14h186q62 0 62 -35q0 -14 -21 -117l-94 -485q-6 -30 -6 -56q0 -65 90 -65h8q47 0 84 26q31 24 47 105l111 567q6 32 23 46t57 14h186q62 0 62 -39q0 -9 -13 -76l-106 -545q-20 -104 -54.5 -170.5t-89.5 -105.5 q-63 -46 -140.5 -66t-201.5 -20h-22q-181 0 -279 61.5t-98 185.5zM422 1260q0 16 31 38l360 265q25 18 43 18q20 0 35 -27l74 -127q10 -17 10 -30q0 -27 -47 -54l-359 -215q-22 -14 -39 -14q-18 0 -36 27l-60 90q-12 18 -12 29z" />
<glyph unicode="&#xfb;" horiz-adv-x="1052" d="M2 229q0 49 21 156l108 559q6 32 23 46t57 14h186q62 0 62 -35q0 -14 -21 -117l-94 -485q-6 -30 -6 -56q0 -65 90 -65h8q47 0 84 26q31 24 47 105l111 567q6 32 23 46t57 14h186q62 0 62 -39q0 -9 -13 -76l-106 -545q-20 -104 -54.5 -170.5t-89.5 -105.5 q-63 -46 -140.5 -66t-201.5 -20h-22q-181 0 -279 61.5t-98 185.5zM317 1223q-25 25 2 51l234 219q27 27 61 27h125q33 0 49 -27l144 -215q12 -18 12 -31q0 -15 -22 -30l-105 -68q-23 -14 -33 -14q-16 0 -32 22l-111 154h-10l-170 -154q-24 -22 -41 -22q-13 0 -25 12z" />
<glyph unicode="&#xfc;" horiz-adv-x="1052" d="M2 229q0 49 21 156l108 559q6 32 23 46t57 14h186q62 0 62 -35q0 -14 -21 -117l-94 -485q-6 -30 -6 -56q0 -65 90 -65h8q47 0 84 26q31 24 47 105l111 567q6 32 23 46t57 14h186q62 0 62 -39q0 -9 -13 -76l-106 -545q-20 -104 -54.5 -170.5t-89.5 -105.5 q-63 -46 -140.5 -66t-201.5 -20h-22q-181 0 -279 61.5t-98 185.5zM297 1255q0 24 6 48l2 8q16 67 51.5 100t104.5 33h14q51 0 80 -25t29 -69q0 -23 -6 -47l-3 -9q-16 -67 -51 -100t-104 -33h-14q-51 0 -80 25t-29 69zM678 1255q0 24 6 48l2 8q16 67 51.5 100t104.5 33h14 q51 0 80 -25t29 -69q0 -19 -7 -47l-2 -9q-16 -67 -51 -100t-104 -33h-15q-51 0 -79.5 25t-28.5 69z" />
<glyph unicode="&#xfd;" horiz-adv-x="999" d="M47 944q-3 60 74 60h172q35 0 48 -10t13 -40q6 -356 35 -684h10q180 361 291 678q10 31 28 43.5t50 12.5h197q69 0 43 -62q-277 -690 -674 -1313q-28 -47 -64 -47q-14 0 -61 19l-109 43q-43 17 -43 45q0 16 19 43q96 140 162 252q-84 27 -107 151q-24 125 -47.5 367.5 t-36.5 441.5zM385 1260q0 16 31 38l360 265q25 18 43 18q20 0 35 -27l74 -127q10 -17 10 -30q0 -27 -47 -54l-359 -215q-22 -14 -38 -14q-19 0 -37 27l-60 90q-12 18 -12 29z" />
<glyph unicode="&#xfe;" horiz-adv-x="1087" d="M-102 -324q0 23 12 86l309 1575q6 28 21 38.5t47 10.5h200q58 0 58 -34q0 -20 -17 -99l-53 -274q93 43 234 43h14q281 0 281 -246q0 -74 -52 -350q-27 -142 -59 -225.5t-94 -134.5q-58 -48 -127.5 -66t-173.5 -18h-11q-51 0 -108.5 12t-91.5 29l-62 -314 q-7 -44 -27 -57.5t-73 -13.5h-160q-67 0 -67 38zM346 311q0 -39 25 -56t80 -17h10q31 0 53.5 5t39.5 19t27.5 28t21 44t16.5 54t16 69q35 168 35 221q0 86 -105 86h-14q-67 0 -100 -29.5t-48 -109.5l-41 -209q-16 -78 -16 -105z" />
<glyph unicode="&#xff;" horiz-adv-x="999" d="M47 944q-3 60 74 60h172q35 0 48 -10t13 -40q6 -356 35 -684h10q180 361 291 678q10 31 28 43.5t50 12.5h197q69 0 43 -62q-277 -690 -674 -1313q-28 -47 -64 -47q-14 0 -61 19l-109 43q-43 17 -43 45q0 16 19 43q96 140 162 252q-84 27 -107 151q-24 125 -47.5 367.5 t-36.5 441.5zM250 1255q0 24 6 48l2 8q16 67 51.5 100t104.5 33h14q51 0 80 -25t29 -69q0 -19 -7 -47l-2 -9q-16 -67 -51 -100t-104 -33h-15q-51 0 -79.5 25t-28.5 69zM631 1255q0 24 6 48l2 8q16 67 51.5 100t104.5 33h14q51 0 80 -25t29 -69q0 -19 -7 -47l-2 -9 q-16 -67 -51 -100t-104 -33h-15q-51 0 -79.5 25t-28.5 69z" />
<glyph unicode="&#x152;" horiz-adv-x="1806" d="M57 352q0 117 56 402q39 203 96.5 315.5t165.5 185.5q130 88 338 88h16q163 0 295 -98q42 45 108.5 62.5t172.5 17.5h489q27 0 37 -6t10 -21q0 -10 -14 -90l-19 -100q-8 -40 -20 -50.5t-59 -10.5h-424q-27 0 -39.5 -9.5t-18.5 -31.5q-20 -75 -45 -207h420q31 0 43 -6 t12 -21q0 -29 -16 -100l-19 -84q-6 -26 -20.5 -36.5t-46.5 -10.5h-426q-20 -105 -25 -146q-8 -52 -8 -86q0 -17 8 -23.5t29 -6.5h426q29 0 41 -7t12 -28q0 -18 -12 -94l-14 -87q-8 -37 -24 -50t-58 -13h-535q-81 0 -124.5 13.5t-63.5 47.5q-139 -79 -301 -79h-17 q-112 0 -196 26t-131 70q-52 47 -75.5 112.5t-23.5 161.5zM410 418q0 -68 26 -101q40 -49 127 -49h17q113 0 219 70q19 143 55 348q35 195 64 309q-86 62 -185 62h-20q-86 0 -144 -49q-39 -33 -65.5 -108.5t-50.5 -199.5q-43 -228 -43 -282z" />
<glyph unicode="&#x153;" horiz-adv-x="1599" d="M-4 272q0 51 17.5 161t41.5 210q27 114 70.5 185t120.5 120q118 74 319 74h25q161 0 254 -70q115 70 303 70h20q94 0 169.5 -25.5t109.5 -64.5q65 -76 65 -197q0 -63 -30 -233l-11 -56q-6 -32 -21.5 -44.5t-47.5 -12.5h-486q-8 -39 -8 -72q0 -43 36 -61t134 -18h13 q95 0 217 28q30 6 39 6q27 0 30 -34l8 -95q1 -9 2 -23t2 -23.5t1 -14.5q0 -33 -64 -53q-151 -47 -328 -47h-28q-164 0 -271 73q-133 -73 -309 -73h-27q-185 0 -280 79q-86 71 -86 211zM324 322q0 -84 96 -84h4q64 0 100 26q28 22 45.5 61t34.5 117q39 167 39 240 q0 84 -96 84h-4q-63 0 -101 -27q-27 -21 -44 -59.5t-36 -118.5q-38 -163 -38 -239zM954 602h224q23 0 26 21l4 18q9 43 9 80q0 23 -13 43q-20 29 -86 29h-10q-59 0 -92 -29q-40 -37 -53 -117l-9 -41v-4z" />
<glyph unicode="&#x178;" horiz-adv-x="1085" d="M137 1257q-6 68 49 68h203q29 0 38 -0.5t21.5 -5t15.5 -14.5t5 -29q16 -277 68 -582h10q111 195 289 582q14 36 28.5 42.5t63.5 6.5h213q21 0 31 -6t10 -23q0 -6 -1 -12t-3.5 -13t-4.5 -13t-6.5 -15.5t-7 -15t-9 -18.5l-9.5 -19q-95 -198 -227.5 -418t-256.5 -389 l-61 -320q-8 -37 -24 -50t-54 -13h-211q-31 0 -44 8t-13 27q0 20 14 86l53 270q-61 180 -112 419.5t-68 446.5zM379 1577q0 23 6 47l2 8q16 67 51.5 100t104.5 33h14q51 0 80 -25t29 -69q0 -19 -7 -47l-2 -8q-16 -67 -51 -100t-104 -33h-15q-51 0 -79.5 25t-28.5 69z M760 1577q0 23 6 47l2 8q16 67 51.5 100t104.5 33h14q51 0 80 -25t29 -69q0 -19 -7 -47l-2 -8q-16 -67 -51 -100t-104 -33h-15q-51 0 -79.5 25t-28.5 69z" />
<glyph unicode="&#x2c6;" horiz-adv-x="747" d="M152.5 1247.5q0.5 11.5 15.5 26.5l233 219q27 27 62 27h125q33 0 49 -27l143 -215q13 -20 13 -31q0 -15 -23 -30l-104 -68q-23 -14 -33 -14q-17 0 -33 22l-111 154h-10l-170 -154q-24 -22 -41 -22q-12 0 -24 12l-78 76q-14 13 -13.5 24.5z" />
<glyph unicode="&#x2dc;" horiz-adv-x="706" d="M106 1251q115 195 265 195q44 0 79.5 -14.5t54.5 -32.5t44.5 -32.5t50.5 -14.5q28 0 50.5 17t51.5 58q13 18 25 19t29 -10l75 -50q31 -19 11 -53q-115 -194 -264 -194q-43 0 -78.5 14.5t-54.5 32.5t-44.5 32.5t-52.5 14.5q-28 0 -50.5 -17.5t-51.5 -58.5 q-13 -18 -24.5 -19t-28.5 11l-76 49q-31 19 -11 53z" />
<glyph unicode="&#x2000;" horiz-adv-x="938" />
<glyph unicode="&#x2001;" horiz-adv-x="1876" />
<glyph unicode="&#x2002;" horiz-adv-x="938" />
<glyph unicode="&#x2003;" horiz-adv-x="1876" />
<glyph unicode="&#x2004;" horiz-adv-x="625" />
<glyph unicode="&#x2005;" horiz-adv-x="469" />
<glyph unicode="&#x2006;" horiz-adv-x="312" />
<glyph unicode="&#x2007;" horiz-adv-x="312" />
<glyph unicode="&#x2008;" horiz-adv-x="234" />
<glyph unicode="&#x2009;" horiz-adv-x="375" />
<glyph unicode="&#x200a;" horiz-adv-x="104" />
<glyph unicode="&#x2010;" horiz-adv-x="745" d="M33 451v153q0 37 18 51.5t64 14.5h450q46 0 64 -14.5t18 -51.5v-153q0 -38 -16 -52t-66 -14h-450q-50 0 -66 14t-16 52z" />
<glyph unicode="&#x2011;" horiz-adv-x="745" d="M33 451v153q0 37 18 51.5t64 14.5h450q46 0 64 -14.5t18 -51.5v-153q0 -38 -16 -52t-66 -14h-450q-50 0 -66 14t-16 52z" />
<glyph unicode="&#x2012;" horiz-adv-x="745" d="M33 451v153q0 37 18 51.5t64 14.5h450q46 0 64 -14.5t18 -51.5v-153q0 -38 -16 -52t-66 -14h-450q-50 0 -66 14t-16 52z" />
<glyph unicode="&#x2013;" horiz-adv-x="1024" d="M33 451v153q0 37 18 51.5t64 14.5h737q46 0 64 -14.5t18 -51.5v-153q0 -38 -16 -52t-66 -14h-737q-50 0 -66 14t-16 52z" />
<glyph unicode="&#x2014;" horiz-adv-x="2048" d="M33 451v153q0 37 18 51.5t64 14.5h1761q46 0 64 -14.5t18 -51.5v-153q0 -38 -16 -52t-66 -14h-1761q-50 0 -66 14t-16 52z" />
<glyph unicode="&#x2018;" horiz-adv-x="557" d="M131 934q0 31 12 90q17 93 97 226t209 251q33 31 73 4l76 -53q34 -21 -2 -57q-36 -38 -92 -103q-49 -54 -56 -74q-4 -9 -4 -18q0 -10 13 -26l20 -19q27 -24 27 -63q0 -24 -17 -111q-17 -83 -62 -120.5t-130 -37.5h-21q-75 0 -108 27t-35 84z" />
<glyph unicode="&#x2019;" horiz-adv-x="559" d="M150 893q-34 21 2 57q36 38 92 103q23 26 32 37t18 26.5t9 28.5q0 11 -12 26l-21 19q-26 23 -26 63q0 29 16 111q17 83 62.5 120.5t130.5 37.5h20q75 0 108 -27t35 -84q0 -31 -12 -90q-17 -94 -96.5 -226.5t-208.5 -250.5q-34 -31 -74 -4z" />
<glyph unicode="&#x201a;" horiz-adv-x="557" d="M-102 -291q-34 22 2 58q46 49 92 102q23 26 32 37t18 26.5t9 28.5q0 12 -12 27l-21 18q-26 23 -26 64q0 28 16 110q17 83 62.5 120.5t130.5 37.5h20q75 0 108.5 -27t35.5 -84q0 -26 -13 -90q-17 -94 -96.5 -226.5t-208.5 -250.5q-34 -31 -74 -4z" />
<glyph unicode="&#x201c;" horiz-adv-x="1062" d="M131 934q0 31 12 90q17 93 97 226t209 251q33 31 73 4l76 -53q34 -21 -2 -57q-36 -38 -92 -103q-49 -54 -56 -74q-4 -9 -4 -18q0 -10 13 -26l20 -19q27 -24 27 -63q0 -24 -17 -111q-17 -83 -62 -120.5t-130 -37.5h-21q-75 0 -108 27t-35 84zM637 934q0 31 12 90 q17 94 96.5 226.5t208.5 250.5q34 31 74 4l76 -53q34 -21 -2 -57q-36 -38 -92 -103q-49 -54 -56 -74q-4 -9 -4 -18q0 -10 13 -26l20 -19q27 -24 27 -63q0 -24 -17 -111q-17 -83 -62 -120.5t-130 -37.5h-21q-75 0 -108 27t-35 84z" />
<glyph unicode="&#x201d;" horiz-adv-x="1062" d="M150 895q-34 21 2 57q36 38 92 103q23 26 32 37t18 26.5t9 28.5q0 12 -12 27l-21 18q-26 23 -26 63q0 29 16 111q17 83 62.5 120.5t130.5 37.5h20q75 0 108 -27t35 -84q0 -31 -12 -90q-17 -94 -96.5 -226.5t-208.5 -250.5q-34 -31 -74 -4zM653 895q-34 21 2 57 q47 50 93 103q23 26 32 37t18 26.5t9 28.5q0 12 -12 27l-21 18q-26 23 -26 63q0 29 16 111q17 83 62 120.5t130 37.5h21q75 0 108 -27t35 -84q0 -31 -12 -90q-17 -94 -96.5 -226.5t-208.5 -250.5q-34 -31 -74 -4z" />
<glyph unicode="&#x201e;" horiz-adv-x="1062" d="M-102 -291q-34 22 2 58q46 49 92 102q23 26 32 37t18 26.5t9 28.5q0 12 -12 27l-21 18q-26 23 -26 64q0 28 16 110q17 83 62.5 120.5t130.5 37.5h20q75 0 108.5 -27t35.5 -84q0 -26 -13 -90q-17 -94 -96.5 -226.5t-208.5 -250.5q-34 -31 -74 -4zM403 -291q-34 21 3 58 q46 49 92 102q23 26 32 37t18 26.5t9 28.5q0 12 -12 27l-21 18q-26 23 -26 64q0 28 16 110q17 83 62.5 120.5t130.5 37.5h20q75 0 108 -27t35 -84q0 -31 -12 -90q-17 -94 -96.5 -226.5t-208.5 -250.5q-34 -31 -74 -4z" />
<glyph unicode="&#x2022;" horiz-adv-x="819" d="M78 483q0 137 104 242.5t248 105.5q106 0 173 -66.5t67 -166.5q0 -137 -105 -242.5t-248 -105.5q-106 0 -172.5 66.5t-66.5 166.5z" />
<glyph unicode="&#x2026;" horiz-adv-x="1480" d="M-31 84q0 39 13 102q21 85 67 118.5t125 33.5h19q139 0 139 -96q0 -50 -15 -109q-21 -85 -66 -118t-124 -33h-18q-140 0 -140 102zM463 84q0 44 12 102q21 85 67 118.5t126 33.5h18q139 0 139 -96q0 -54 -14 -109q-21 -85 -66 -118t-124 -33h-19q-139 0 -139 102zM956 84 q0 39 13 102q21 85 67 118.5t125 33.5h19q139 0 139 -96q0 -54 -14 -109q-21 -85 -66.5 -118t-124.5 -33h-18q-140 0 -140 102z" />
<glyph unicode="&#x202f;" horiz-adv-x="375" />
<glyph unicode="&#x2039;" horiz-adv-x="835" d="M18 440q0 18 7 49q9 39 22 57t51 46l459 319q33 23 49 23q21 0 45 -31l74 -92q35 -43 35 -66q0 -17 -7 -27t-30 -28l-322 -241l197 -213q27 -30 27 -52q0 -25 -37 -57l-96 -76q-42 -31 -56 -31q-20 0 -45 25l-336 322q-37 37 -37 73z" />
<glyph unicode="&#x203a;" horiz-adv-x="835" d="M10 209q0 17 7 27t30 28l322 242l-197 213q-27 30 -27 51q0 25 37 57l97 76q4 3 10.5 8t9.5 7t8 5.5t7.5 5t6 3t7 2t6.5 0.5q20 0 45 -25l336 -321q37 -37 37 -74q0 -18 -7 -49q-9 -39 -22 -57t-51 -46l-459 -319q-33 -23 -49 -23q-21 0 -45 31l-74 92q-35 43 -35 66z " />
<glyph unicode="&#x205f;" horiz-adv-x="469" />
<glyph unicode="&#x20ac;" d="M31 419q-7 11 0 42l14 78q6 34 16 43.5t39 9.5h95l22 121h-94q-28 0 -35 11t0 42l14 78q6 34 16.5 43.5t39.5 9.5h98q59 236 192.5 341t382.5 105q81 0 171.5 -17t154.5 -44q33 -14 38 -37.5t-9 -54.5l-49 -135q-10 -27 -26.5 -31.5t-51.5 6.5q-109 31 -209 31h-2 q-93 0 -153.5 -35t-90.5 -129h334q28 0 35 -11t0 -42l-15 -78q-6 -34 -16 -43.5t-39 -9.5h-340l-22 -121h340q28 0 34.5 -12t-0.5 -41l-14 -78q-6 -35 -15.5 -44t-39.5 -9h-328v-15q0 -66 47 -97.5t158 -31.5q45 0 119.5 11t115.5 22q29 7 41.5 -1.5t12.5 -35.5v-156 q0 -28 -11 -42t-49 -27q-62 -22 -155 -37.5t-174 -15.5h-7q-294 0 -393 137q-59 80 -59 209q0 47 2 80h-100q-28 0 -35 11z" />
<glyph unicode="&#x2122;" horiz-adv-x="1546" d="M127 1196l16 86q5 26 13.5 34.5t33.5 8.5h457q24 0 31 -9t2 -34l-16 -86q-6 -28 -15.5 -35.5t-38.5 -7.5h-118l-84 -426q-6 -28 -16 -35.5t-40 -7.5h-114q-27 0 -36 9.5t-5 33.5l84 426h-119q-27 0 -33.5 8.5t-1.5 34.5zM618 727q60 284 138 543q10 35 23 45t46 10h203 q32 0 44.5 -10.5t12.5 -38.5q0 -25 -0.5 -83t-0.5 -109t1 -95q23 59 66.5 171.5t44.5 115.5q12 30 27 39.5t53 9.5h205q33 0 45 -10t8 -45q-25 -225 -80 -543q-6 -27 -16 -35t-39 -8h-113q-50 0 -41 43q35 178 68 397q-72 -181 -142 -336q-12 -27 -24 -33.5t-43 -6.5h-127 q-33 0 -43 8.5t-12 31.5q-11 158 -11 345q-38 -153 -90 -406q-6 -25 -18.5 -34t-38.5 -9h-102q-28 0 -38.5 10.5t-5.5 32.5z" />
<glyph unicode="&#xe000;" horiz-adv-x="1003" d="M0 0v1004h1004v-1004h-1004z" />
</font>
</defs>
</svg>
